<?xml version="1.0" encoding="utf-8"?>
<!-- Generator: Adobe Illustrator 27.3.1, SVG Export Plug-In . SVG Version: 6.00 Build 0)  -->
<svg version="1.1" id="katman_1" xmlns="http://www.w3.org/2000/svg" xmlns:xlink="http://www.w3.org/1999/xlink" x="0px" y="0px"
	 viewBox="0 0 618.2 349.8" style="enable-background:new 0 0 618.2 349.8;" xml:space="preserve">
<style type="text/css">
	.st0{fill:#80C0BE;stroke:#FFFFFF;stroke-miterlimit:10;}
	.st1{fill:#7DB3DF;stroke:#FFFFFF;stroke-width:1;stroke-miterlimit:10;}
	.st2{fill:#C8D0D0;stroke:#FFFFFF;stroke-miterlimit:10;}
	.st3{fill:#CCDFE5;stroke:#FFFFFF;stroke-miterlimit:10;}
	.st4{fill:#7DB3DF;stroke:#FFFFFF;stroke-miterlimit:10;}
	.st5{fill:#89C6D7;stroke:#FFFFFF;stroke-miterlimit:10;}
	.st6{fill:#45569E;stroke:#FFFFFF;stroke-miterlimit:10;}
	.st7{fill:#5C8FC9;stroke:#FFFFFF;stroke-miterlimit:10;}
	.st8{fill:#B4D6C7;stroke:#FFFFFF;stroke-miterlimit:10;}
	.st9{fill:#F1EA7A;stroke:#FFFFFF;stroke-miterlimit:10;}
	.st10{fill:none;stroke:#010202;stroke-miterlimit:10;}
	.st11{fill:#010202;}
	.st12{fill:#45ACAB;}
	.st13{fill:#4057A2;stroke:#FFFFFF;stroke-miterlimit:10;}
	.st14{fill:#4B90CD;stroke:#FFFFFF;stroke-miterlimit:10;}
	.st15{fill:#76C8D9;stroke:#FFFFFF;stroke-miterlimit:10;}
	.st16{fill:#DD3014;stroke:#FFFFFF;stroke-miterlimit:10;}
	.st17{fill:#EA6038;stroke:#FFFFFF;stroke-miterlimit:10;}
	.st18{fill:#F9B30E;stroke:#FFFFFF;stroke-miterlimit:10;}
	.st19{font-family:'DINAlternate-Bold';}
	.st20{font-size:15px;}
	.st21{fill:#F9B30E;}
	.st22{font-size:26.0819px;}
	.st23{fill:#DD3014;}
	.st24{fill:#DB6944;stroke:#FFFFFF;stroke-miterlimit:10;}
	.st25{fill:#8A261D;stroke:#FFFFFF;stroke-miterlimit:10;}
	.st26{fill:#CC4128;stroke:#FFFFFF;stroke-miterlimit:10;}
	.st27{fill:#EFB742;stroke:#FFFFFF;stroke-miterlimit:10;}
	.st28{fill:#F3F0B5;stroke:#FFFFFF;stroke-miterlimit:10;}
	.st29{fill:none;}
	.st30{fill:none;stroke:#000000;stroke-miterlimit:10;}
	.st31{fill:#FFFFFF;stroke:#000000;stroke-miterlimit:10;}
	.st32{fill:#F1E966;stroke:#FFFFFF;stroke-miterlimit:10;}
	.st33{fill:#951914;stroke:#FFFFFF;stroke-miterlimit:10;}
	.st34{fill:#E74526;stroke:#FFFFFF;stroke-miterlimit:10;}
	.st35{fill:#F18C56;stroke:#FFFFFF;stroke-miterlimit:10;}
	.st36{fill:#F3EFAD;stroke:#FFFFFF;stroke-miterlimit:10;}
	.st37{fill:#C6D0CF;stroke:#FFFFFF;stroke-miterlimit:10;}
	.st38{fill:#C6E0E5;stroke:#FFFFFF;stroke-miterlimit:10;}
	.st39{fill:#AAD6C5;stroke:#FFFFFF;stroke-miterlimit:10;}
	.st40{fill:#223A81;stroke:#FFFFFF;stroke-miterlimit:10;}
	.st41{fill:#6CB3E3;stroke:#FFFFFF;stroke-miterlimit:10;}
	.st42{fill:#3ABBD4;stroke:#FFFFFF;stroke-miterlimit:10;}
	.st43{fill:#6BC1BD;stroke:#FFFFFF;stroke-miterlimit:10;}
	.st44{fill:#EC6C70;stroke:#FFFFFF;stroke-miterlimit:10;}
</style>
<g>
	
		<rect x="74.9" y="180.1" transform="matrix(-1 -1.224647e-16 1.224647e-16 -1 621.9917 405.2943)" class="st16" width="472.1" height="45.1"/>
	
		<rect x="74.9" y="135" transform="matrix(-1 -1.224647e-16 1.224647e-16 -1 385.9135 315.1567)" class="st17" width="236" height="45.1"/>
	
		<rect x="74.9" y="90" transform="matrix(-1 -1.224647e-16 1.224647e-16 -1 228.5491 225.0193)" class="st18" width="78.7" height="45.1"/>
	
		<rect x="153.6" y="90" transform="matrix(-1 -1.224647e-16 1.224647e-16 -1 385.85 225.0193)" class="st18" width="78.7" height="45.1"/>
	
		<rect x="232.3" y="90" transform="matrix(-1 -1.224647e-16 1.224647e-16 -1 543.2777 225.0192)" class="st18" width="78.7" height="45.1"/>
	
		<rect x="311" y="135" transform="matrix(-1 -1.224647e-16 1.224647e-16 -1 858.0699 315.1567)" class="st17" width="236" height="45.1"/>
	
		<rect x="311" y="90" transform="matrix(-1 -1.224647e-16 1.224647e-16 -1 700.7055 225.0193)" class="st18" width="78.7" height="45.1"/>
	
		<rect x="389.7" y="90" transform="matrix(-1 -1.224647e-16 1.224647e-16 -1 858.0064 225.0193)" class="st18" width="78.7" height="45.1"/>
	
		<rect x="468.4" y="90" transform="matrix(-1 -1.224647e-16 1.224647e-16 -1 1015.4341 225.0192)" class="st18" width="78.7" height="45.1"/>
</g>
<g>
	<polygon class="st11" points="565.7,260.4 559.2,267 559.2,260.4 	"/>
	<polygon class="st11" points="565.7,260.4 559.2,253.9 559.2,260.4 	"/>
</g>
<text transform="matrix(1 0 0 1 62.2857 279.5617)" class="st19 st20">0 ms</text>
<text transform="matrix(1 0 0 1 212.6798 279.3815)" class="st19 st20">100 ms</text>
<text transform="matrix(1 0 0 1 373.953 279.4718)" class="st19 st20">200 ms</text>
<text transform="matrix(1 0 0 1 517.0378 279.4713)" class="st19 st20">300 ms</text>
<rect x="56.3" y="259.5" class="st11" width="502.8" height="1.8"/>
<text transform="matrix(1 0 0 1 85.1142 213.1483)" class="st21 st19 st22">a()</text>
<text transform="matrix(1 0 0 1 85.7688 168.2544)" class="st21 st19 st22">b()</text>
<text transform="matrix(1 0 0 1 85.7688 124.5283)" class="st23 st19 st22">c()</text>
<text transform="matrix(1 0 0 1 161.7214 124.5283)" class="st23 st19 st22">c()</text>
<text transform="matrix(1 0 0 1 237.9565 124.5283)" class="st23 st19 st22">c()</text>
<text transform="matrix(1 0 0 1 320.6856 170.9982)" class="st21 st19 st22">b()</text>
<text transform="matrix(1 0 0 1 320.6856 124.5288)" class="st23 st19 st22">c()</text>
<text transform="matrix(1 0 0 1 398.2722 124.5281)" class="st23 st19 st22">c()</text>
<text transform="matrix(1 0 0 1 474.5074 124.5281)" class="st23 st19 st22">c()</text>
</svg>
