<?xml version="1.0" encoding="utf-8"?>
<!-- Generator: Adobe Illustrator 27.3.1, SVG Export Plug-In . SVG Version: 6.00 Build 0)  -->
<svg version="1.0" id="katman_1" xmlns="http://www.w3.org/2000/svg" xmlns:xlink="http://www.w3.org/1999/xlink" x="0px" y="0px"
	 viewBox="0 0 1000 661.71" style="enable-background:new 0 0 1000 661.71;" xml:space="preserve">
<style type="text/css">
	.st0{fill:#DB6944;stroke:#FFFFFF;stroke-miterlimit:10;}
	.st1{fill:#8A261D;stroke:#FFFFFF;stroke-miterlimit:10;}
	.st2{fill:#CC4128;stroke:#FFFFFF;stroke-miterlimit:10;}
	.st3{fill:#EFB742;stroke:#FFFFFF;stroke-miterlimit:10;}
	.st4{fill:#F3F0B5;stroke:#FFFFFF;stroke-miterlimit:10;}
	.st5{fill:#F1EA7A;stroke:#FFFFFF;stroke-miterlimit:10;}
	.st6{fill:#E49261;stroke:#FFFFFF;stroke-miterlimit:10;}
	.st7{fill:#DD7473;stroke:#FFFFFF;stroke-miterlimit:10;}
	.st8{fill:#45569E;stroke:#FFFFFF;stroke-miterlimit:10;}
	.st9{fill:#5C8FC9;stroke:#FFFFFF;stroke-miterlimit:10;}
	.st10{fill:#C8D0D0;stroke:#FFFFFF;stroke-miterlimit:10;}
	.st11{fill:#89C6D7;stroke:#FFFFFF;stroke-miterlimit:10;}
	.st12{fill:#CCDFE5;stroke:#FFFFFF;stroke-miterlimit:10;}
	.st13{fill:#B4D6C7;stroke:#FFFFFF;stroke-miterlimit:10;}
	.st14{fill:#273A7E;stroke:#FFFFFF;stroke-miterlimit:10;}
	.st15{fill:#7DB3DF;stroke:#FFFFFF;stroke-miterlimit:10;}
	.st16{fill:#63B9D2;stroke:#FFFFFF;stroke-miterlimit:10;}
	.st17{fill:#80C0BE;stroke:#FFFFFF;stroke-miterlimit:10;}
	.st18{fill:#D65335;stroke:#FFFFFF;stroke-miterlimit:10;}
	.st19{fill:none;stroke:#010202;stroke-miterlimit:10;}
	.st20{fill:#010202;}
	.st21{font-family:'DINAlternate-Bold';}
	.st22{font-size:39.3647px;}
	.st23{fill:#CC4128;stroke:#010202;stroke-miterlimit:10;}
	.st24{fill:#DB6944;stroke:#010202;stroke-miterlimit:10;}
	.st25{fill:#FFFFFF;stroke:#010202;stroke-miterlimit:10;}
	.st26{fill:#45ACAB;}
	.st27{fill:#EFB742;stroke:#010202;stroke-miterlimit:10;}
	.st28{fill:#F3F0B5;stroke:#010202;stroke-miterlimit:10;}
	.st29{fill:#F1EA7A;stroke:#030303;stroke-miterlimit:10;}
</style>
<rect x="317.99" y="423.99" transform="matrix(-1 -4.060874e-12 4.060874e-12 -1 996.1277 864.1638)" class="st5" width="360.14" height="16.19"/>
<rect x="320.26" y="407.71" transform="matrix(-1 2.018130e-03 -2.018130e-03 -1 995.0215 830.6042)" class="st1" width="353.66" height="16.19"/>
<rect x="317.99" y="456.54" transform="matrix(-1 -2.980405e-12 2.980405e-12 -1 1124.2554 929.266)" class="st0" width="488.27" height="16.19"/>
<rect x="317.99" y="440.26" transform="matrix(-1 -3.009271e-12 3.009271e-12 -1 1121.9867 896.7151)" class="st1" width="486" height="16.19"/>
<rect x="210.78" y="489.09" transform="matrix(-1 -2.395540e-12 2.395540e-12 -1 1028.2686 994.3679)" class="st3" width="606.72" height="16.19"/>
<rect x="317.99" y="472.81" transform="matrix(-1 -2.975520e-12 2.975520e-12 -1 1125.0984 961.817)" class="st3" width="489.11" height="16.19"/>
<rect x="210.78" y="521.64" transform="matrix(-1 -2.327150e-12 2.327150e-12 -1 1046.0667 1059.4697)" class="st1" width="624.51" height="16.19"/>
<rect x="210.78" y="505.36" transform="matrix(-1 -2.327150e-12 2.327150e-12 -1 1046.0667 1026.9188)" class="st0" width="624.51" height="16.19"/>
<rect x="351.93" y="294.16" transform="matrix(-1 -1.550150e-11 1.550150e-11 -1 798.2027 604.5087)" class="st0" width="94.34" height="16.19"/>
<rect x="368.02" y="277.73" transform="matrix(-1 -1.973989e-11 1.973989e-11 -1 810.1188 571.6492)" class="st18" width="74.09" height="16.19"/>
<rect x="342.5" y="326.56" transform="matrix(-1 -1.292356e-11 1.292356e-11 -1 797.5917 669.302)" class="st18" width="112.6" height="16.19"/>
<rect x="342.5" y="310.28" transform="matrix(-1 -1.393919e-11 1.393919e-11 -1 789.2567 636.7511)" class="st18" width="104.27" height="16.19"/>
<rect x="457.4" y="294.31" transform="matrix(-1 -2.739332e-11 2.739332e-11 -1 967.9236 604.8173)" class="st0" width="53.12" height="16.19"/>
<rect x="486.74" y="278.04" transform="matrix(-1 -6.924207e-11 6.924207e-11 -1 994.4878 572.2664)" class="st5" width="21.02" height="16.19"/>
<rect x="454.56" y="326.86" transform="matrix(-1 -2.596868e-11 2.596868e-11 -1 965.0787 669.9192)" class="st1" width="55.97" height="16.19"/>
<rect x="454.56" y="310.59" transform="matrix(-1 -2.596868e-11 2.596868e-11 -1 965.0787 637.3682)" class="st5" width="55.97" height="16.19"/>
<rect x="509.81" y="294.31" transform="matrix(-1 -2.286539e-11 2.286539e-11 -1 1083.589 604.8173)" class="st0" width="63.96" height="16.19"/>
<rect x="518.59" y="278.04" transform="matrix(-1 -2.656243e-11 2.656243e-11 -1 1091.9611 572.2664)" class="st1" width="54.78" height="16.19"/>
<rect x="509.81" y="326.86" transform="matrix(-1 -2.079327e-11 2.079327e-11 -1 1089.526 669.9192)" class="st1" width="69.9" height="16.19"/>
<rect x="509.81" y="310.59" transform="matrix(-1 -2.149671e-11 2.149671e-11 -1 1087.3229 637.3682)" class="st18" width="67.69" height="16.19"/>
<rect x="534.4" y="228.98" transform="matrix(-1 -8.193991e-11 8.193991e-11 -1 1086.536 474.1592)" class="st6" width="17.74" height="16.19"/>
<rect x="534.4" y="212.32" transform="matrix(-1 -8.625868e-11 8.625868e-11 -1 1085.6268 440.8272)" class="st1" width="16.83" height="16.19"/>
<rect x="524" y="261.54" transform="matrix(-1 -4.785073e-11 4.785073e-11 -1 1078.5648 539.2616)" class="st5" width="30.56" height="16.19"/>
<rect x="529.2" y="245.26" transform="matrix(-1 -6.052726e-11 6.052726e-11 -1 1082.4423 506.7104)" class="st18" width="24.04" height="16.19"/>
<rect x="215.29" y="440.52" transform="matrix(-1 -1.191501e-10 1.191501e-10 -1 442.7948 897.2275)" class="st6" width="12.21" height="16.19"/>
<rect x="218.14" y="424.35" transform="matrix(-1 -1.586705e-10 1.586705e-10 -1 445.4495 864.8885)" class="st1" width="9.17" height="16.19"/>
<rect x="227.72" y="456.88" transform="matrix(-1 -2.380022e-10 2.380022e-10 -1 461.5416 929.957)" class="st6" width="6.11" height="16.19"/>
<rect x="227.72" y="440.22" transform="matrix(-1 -2.524306e-10 2.524306e-10 -1 461.2286 896.625)" class="st5" width="5.79" height="16.19"/>
<rect x="210.9" y="472.81" transform="matrix(-1 -4.755319e-11 4.755319e-11 -1 452.3662 961.817)" class="st5" width="30.56" height="16.19"/>
<rect x="210.85" y="456.69" transform="matrix(-1 -8.834324e-11 8.834324e-11 -1 438.2465 929.5666)" class="st18" width="16.55" height="16.19"/>
<rect x="562.82" y="229.29" transform="matrix(-1 -2.962716e-10 2.962716e-10 -1 1130.5471 474.7768)" class="st6" width="4.91" height="16.19"/>
<rect x="565.9" y="213.02" transform="matrix(-1 -7.952480e-10 7.952480e-10 -1 1133.6273 442.2249)" class="st5" width="1.83" height="16.19"/>
<rect x="554.44" y="261.84" transform="matrix(-1 -1.100374e-10 1.100374e-10 -1 1122.162 539.8787)" class="st1" width="13.29" height="16.19"/>
<rect x="560.56" y="245.57" transform="matrix(-1 -2.029693e-10 2.029693e-10 -1 1128.2831 507.3277)" class="st5" width="7.17" height="16.19"/>
<rect x="567.56" y="229.29" transform="matrix(-1 -6.592394e-10 6.592394e-10 -1 1137.3206 474.7758)" class="st6" width="2.2" height="16.19"/>
<rect x="567.56" y="213.02" transform="matrix(-1 -6.584143e-10 6.584143e-10 -1 1137.3206 442.2249)" class="st1" width="2.2" height="16.19"/>
<rect x="567.56" y="261.84" transform="matrix(-1 -3.296200e-10 3.296200e-10 -1 1139.5251 539.8777)" class="st5" width="4.41" height="16.19"/>
<rect x="567.56" y="245.57" transform="matrix(-1 -6.592394e-10 6.592394e-10 -1 1137.3206 507.3268)" class="st6" width="2.2" height="16.19"/>
<rect x="587.22" y="294" transform="matrix(-1 -4.923007e-11 4.923007e-11 -1 1203.9958 604.199)" class="st5" width="29.56" height="16.19"/>
<rect x="594.33" y="278.37" transform="matrix(-1 -6.965108e-11 6.965108e-11 -1 1209.5597 572.923)" class="st18" width="20.89" height="16.19"/>
<rect x="582.48" y="327.19" transform="matrix(-1 -3.800705e-11 3.800705e-11 -1 1203.4839 670.5757)" class="st5" width="38.53" height="16.19"/>
<rect x="586.55" y="310.28" transform="matrix(-1 -4.519153e-11 4.519153e-11 -1 1205.3052 636.7506)" class="st18" width="32.2" height="16.19"/>
<rect x="623.21" y="294.31" transform="matrix(-1 -7.709319e-10 7.709319e-10 -1 1248.3112 604.8156)" class="st1" width="1.89" height="16.19"/>
<rect x="623.68" y="278.04" transform="matrix(-1 -1.023487e-09 1.023487e-09 -1 1248.777 572.2646)" class="st1" width="1.42" height="16.19"/>
<rect x="621.01" y="326.86" transform="matrix(-1 -3.549935e-10 3.549935e-10 -1 1246.1046 669.9174)" class="st1" width="4.09" height="16.19"/>
<rect x="622.26" y="310.59" transform="matrix(-1 -5.104642e-10 5.104642e-10 -1 1247.3551 637.3665)" class="st1" width="2.84" height="16.19"/>
<rect x="625" y="294.31" transform="matrix(-1 -1.924924e-10 1.924924e-10 -1 1257.5579 604.8156)" class="st1" width="7.55" height="16.19"/>
<rect x="627.35" y="278.04" transform="matrix(-1 -2.792749e-10 2.792749e-10 -1 1259.9041 572.2646)" class="st1" width="5.2" height="16.19"/>
<rect x="625" y="326.86" transform="matrix(-1 -1.535271e-10 1.535271e-10 -1 1259.486 669.9174)" class="st1" width="9.48" height="16.19"/>
<rect x="625" y="310.59" transform="matrix(-1 -1.656778e-10 1.656778e-10 -1 1258.7689 637.3665)" class="st1" width="8.76" height="16.19"/>
<rect x="604.78" y="229.23" transform="matrix(-1 -3.071509e-10 3.071509e-10 -1 1214.2852 474.6526)" class="st5" width="4.73" height="16.19"/>
<rect x="604.78" y="212.96" transform="matrix(-1 -3.075354e-10 3.075354e-10 -1 1214.2852 442.1017)" class="st5" width="4.73" height="16.19"/>
<rect x="603.5" y="261.78" transform="matrix(-1 -1.533837e-10 1.533837e-10 -1 1216.4685 539.7555)" class="st1" width="9.46" height="16.19"/>
<rect x="604.14" y="245.51" transform="matrix(-1 -1.703448e-10 1.703448e-10 -1 1216.8218 507.2042)" class="st5" width="8.54" height="16.19"/>
<rect x="628.9" y="228.59" transform="matrix(-1 -8.095725e-10 8.095725e-10 -1 1259.5834 473.3776)" class="st5" width="1.79" height="16.19"/>
<rect x="628.9" y="212.32" transform="matrix(-1 -8.156592e-10 8.156592e-10 -1 1259.5834 440.8266)" class="st5" width="1.79" height="16.19"/>
<rect x="628.9" y="261.14" transform="matrix(-1 -8.105868e-10 8.105868e-10 -1 1259.5834 538.4794)" class="st1" width="1.79" height="16.19"/>
<rect x="628.9" y="244.87" transform="matrix(-1 -8.105868e-10 8.105868e-10 -1 1259.5834 505.9285)" class="st1" width="1.79" height="16.19"/>
<rect x="630.67" y="228.59" transform="matrix(-1 -8.095725e-10 8.095725e-10 -1 1263.124 473.3776)" class="st5" width="1.79" height="16.19"/>
<rect x="630.67" y="212.32" transform="matrix(-1 -8.156592e-10 8.156592e-10 -1 1263.124 440.8266)" class="st5" width="1.79" height="16.19"/>
<rect x="630.67" y="261.14" transform="matrix(-1 -8.105868e-10 8.105868e-10 -1 1263.124 538.4794)" class="st1" width="1.79" height="16.19"/>
<rect x="630.67" y="244.87" transform="matrix(-1 -8.105868e-10 8.105868e-10 -1 1263.124 505.9285)" class="st1" width="1.79" height="16.19"/>
<rect x="269.44" y="438.83" transform="matrix(-1 -4.916835e-11 4.916835e-11 -1 568.4376 893.8466)" class="st5" width="29.56" height="16.19"/>
<rect x="276.55" y="423.19" transform="matrix(-1 -6.965108e-11 6.965108e-11 -1 574.0015 862.5704)" class="st18" width="20.89" height="16.19"/>
<rect x="264.7" y="472.02" transform="matrix(-1 -3.777124e-11 3.777124e-11 -1 567.9257 960.2233)" class="st5" width="38.53" height="16.19"/>
<rect x="268.77" y="455.1" transform="matrix(-1 -4.519153e-11 4.519153e-11 -1 569.7469 926.3981)" class="st18" width="32.2" height="16.19"/>
<rect x="305.43" y="439.14" transform="matrix(-1 -7.699682e-10 7.699682e-10 -1 612.7529 894.4631)" class="st1" width="1.89" height="16.19"/>
<rect x="305.9" y="422.86" transform="matrix(-1 -1.020928e-09 1.020928e-09 -1 613.2187 861.9121)" class="st1" width="1.42" height="16.19"/>
<rect x="303.23" y="471.69" transform="matrix(-1 -3.554376e-10 3.554376e-10 -1 610.5464 959.5649)" class="st1" width="4.09" height="16.19"/>
<rect x="304.48" y="455.41" transform="matrix(-1 -5.104642e-10 5.104642e-10 -1 611.7969 927.014)" class="st1" width="2.84" height="16.19"/>
<rect x="307.22" y="439.14" transform="matrix(-1 -1.924924e-10 1.924924e-10 -1 621.9996 894.4631)" class="st1" width="7.55" height="16.19"/>
<rect x="309.57" y="422.86" transform="matrix(-1 -2.792749e-10 2.792749e-10 -1 624.3458 861.9121)" class="st1" width="5.2" height="16.19"/>
<rect x="307.22" y="471.69" transform="matrix(-1 -1.535271e-10 1.535271e-10 -1 623.9277 959.5649)" class="st1" width="9.48" height="16.19"/>
<rect x="307.22" y="455.41" transform="matrix(-1 -1.656778e-10 1.656778e-10 -1 623.2106 927.014)" class="st1" width="8.76" height="16.19"/>
<rect x="287" y="374.05" transform="matrix(-1 -3.071509e-10 3.071509e-10 -1 578.7269 764.3001)" class="st5" width="4.73" height="16.19"/>
<rect x="287" y="357.78" transform="matrix(-1 -3.075354e-10 3.075354e-10 -1 578.7269 731.7491)" class="st5" width="4.73" height="16.19"/>
<rect x="285.72" y="406.61" transform="matrix(-1 -1.533837e-10 1.533837e-10 -1 580.9103 829.403)" class="st1" width="9.46" height="16.19"/>
<rect x="286.36" y="390.33" transform="matrix(-1 -1.703448e-10 1.703448e-10 -1 581.2635 796.8517)" class="st5" width="8.54" height="16.19"/>
<rect x="311.12" y="373.42" transform="matrix(-1 -8.095725e-10 8.095725e-10 -1 624.0252 763.025)" class="st5" width="1.79" height="16.19"/>
<rect x="311.12" y="357.14" transform="matrix(-1 -8.156592e-10 8.156592e-10 -1 624.0252 730.4741)" class="st5" width="1.79" height="16.19"/>
<rect x="311.12" y="405.97" transform="matrix(-1 -8.105868e-10 8.105868e-10 -1 624.0252 828.1269)" class="st1" width="1.79" height="16.19"/>
<rect x="311.12" y="389.69" transform="matrix(-1 -8.105868e-10 8.105868e-10 -1 624.0252 795.576)" class="st1" width="1.79" height="16.19"/>
<rect x="312.89" y="373.42" transform="matrix(-1 -8.095725e-10 8.095725e-10 -1 627.5657 763.025)" class="st5" width="1.79" height="16.19"/>
<rect x="322.35" y="358.52" transform="matrix(-1 -8.105868e-10 8.105868e-10 -1 646.4938 733.2354)" class="st5" width="1.79" height="16.19"/>
<rect x="312.89" y="405.97" transform="matrix(-1 -8.105868e-10 8.105868e-10 -1 627.5657 828.1269)" class="st1" width="1.79" height="16.19"/>
<rect x="312.89" y="389.69" transform="matrix(-1 -8.105868e-10 8.105868e-10 -1 627.5657 795.576)" class="st1" width="1.79" height="16.19"/>
<rect x="398.11" y="196.35" transform="matrix(-1 -1.651067e-10 1.651067e-10 -1 805.0204 408.8945)" class="st0" width="8.8" height="16.19"/>
<rect x="401.68" y="180.08" transform="matrix(-1 -2.795019e-10 2.795019e-10 -1 808.5851 376.3436)" class="st0" width="5.23" height="16.19"/>
<rect x="406.87" y="196.35" transform="matrix(-1 -4.742545e-10 4.742545e-10 -1 816.8026 408.8945)" class="st1" width="3.06" height="16.19"/>
<rect x="406.87" y="180.08" transform="matrix(-1 -4.775212e-10 4.775212e-10 -1 816.8026 376.3436)" class="st0" width="3.06" height="16.19"/>
<rect x="412.6" y="228.92" transform="matrix(-1 -9.551876e-10 9.551876e-10 -1 826.7131 474.033)" class="st4" width="1.52" height="16.19"/>
<rect x="412.6" y="212.65" transform="matrix(-1 -9.563831e-10 9.563831e-10 -1 826.7131 441.482)" class="st0" width="1.52" height="16.19"/>
<rect x="412.6" y="261.47" transform="matrix(-1 -9.563831e-10 9.563831e-10 -1 826.7131 539.1348)" class="st1" width="1.52" height="16.19"/>
<rect x="412.6" y="245.2" transform="matrix(-1 -9.551876e-10 9.551876e-10 -1 826.7131 506.5839)" class="st4" width="1.52" height="16.19"/>
<rect x="414.1" y="228.92" transform="matrix(-1 -9.551876e-10 9.551876e-10 -1 829.7177 474.033)" class="st0" width="1.52" height="16.19"/>
<rect x="414.1" y="212.65" transform="matrix(-1 -9.563831e-10 9.563831e-10 -1 829.7177 441.482)" class="st4" width="1.52" height="16.19"/>
<rect x="414.1" y="261.47" transform="matrix(-1 -9.563831e-10 9.563831e-10 -1 829.7177 539.1348)" class="st1" width="1.52" height="16.19"/>
<rect x="414.1" y="245.2" transform="matrix(-1 -9.551876e-10 9.551876e-10 -1 829.7177 506.5839)" class="st4" width="1.52" height="16.19"/>
<rect x="415.95" y="228.92" transform="matrix(-1 -9.551876e-10 9.551876e-10 -1 833.4233 474.0337)" class="st6" width="1.52" height="16.19"/>
<rect x="415.95" y="212.65" transform="matrix(-1 -9.611650e-10 9.611650e-10 -1 833.4233 441.4827)" class="st6" width="1.52" height="16.19"/>
<rect x="415.95" y="261.47" transform="matrix(-1 -9.563831e-10 9.563831e-10 -1 833.4233 539.1356)" class="st1" width="1.52" height="16.19"/>
<rect x="415.95" y="245.2" transform="matrix(-1 -9.563831e-10 9.563831e-10 -1 833.4233 506.5846)" class="st0" width="1.52" height="16.19"/>
<rect x="417.45" y="261.47" transform="matrix(-1 -3.761050e-10 3.761050e-10 -1 838.7755 539.1356)" class="st1" width="3.87" height="16.19"/>
<rect x="417.45" y="245.2" transform="matrix(-1 -5.883770e-10 5.883770e-10 -1 837.3765 506.5846)" class="st0" width="2.47" height="16.19"/>
<rect x="565.48" y="180.28" transform="matrix(-1 -9.563831e-10 9.563831e-10 -1 1132.4886 376.7443)" class="st5" width="1.52" height="16.19"/>
<rect x="564.44" y="196.36" transform="matrix(-1 -9.545899e-10 9.545899e-10 -1 1130.4012 408.9164)" class="st1" width="1.52" height="16.19"/>
<rect x="564.44" y="213.02" transform="matrix(-1 -9.539921e-10 9.539921e-10 -1 1130.4012 442.2249)" class="st1" width="1.52" height="16.19"/>
<rect x="564.29" y="180.28" transform="matrix(-1 -9.563831e-10 9.563831e-10 -1 1130.0956 376.7443)" class="st18" width="1.52" height="16.19"/>
<rect x="566.99" y="180.28" transform="matrix(-1 -9.563831e-10 9.563831e-10 -1 1135.4933 376.7443)" class="st1" width="1.52" height="16.19"/>
<rect x="565.94" y="196.36" transform="matrix(-1 -9.545899e-10 9.545899e-10 -1 1133.4059 408.9164)" class="st1" width="1.52" height="16.19"/>
<rect x="567.6" y="196.65" transform="matrix(-1 -9.563831e-10 9.563831e-10 -1 1136.7162 409.4846)" class="st4" width="1.52" height="16.19"/>
<rect x="390.59" y="228.9" transform="matrix(-1 -6.557567e-11 6.557567e-11 -1 803.3527 473.9964)" class="st1" width="22.16" height="16.19"/>
<rect x="397.66" y="212.63" transform="matrix(-1 -9.639813e-11 9.639813e-11 -1 810.4203 441.4454)" class="st1" width="15.1" height="16.19"/>
<rect x="333.58" y="261.45" transform="matrix(-1 -4.751454e-10 4.751454e-10 -1 670.2303 539.0983)" class="st0" width="3.06" height="16.19"/>
<rect x="333.58" y="245.18" transform="matrix(-1 -4.751454e-10 4.751454e-10 -1 670.2303 506.5473)" class="st0" width="3.06" height="16.19"/>
<rect x="332.17" y="294" transform="matrix(-1 -3.238761e-10 3.238761e-10 -1 668.8291 604.2001)" class="st5" width="4.48" height="16.19"/>
<rect x="332.17" y="277.73" transform="matrix(-1 -3.263111e-10 3.263111e-10 -1 668.8291 571.6492)" class="st1" width="4.48" height="16.19"/>
<rect x="336.61" y="261.45" transform="matrix(-1 -4.751454e-10 4.751454e-10 -1 676.2781 539.0983)" class="st0" width="3.06" height="16.19"/>
<rect x="336.6" y="294" transform="matrix(-1 -3.238761e-10 3.238761e-10 -1 677.6793 604.2001)" class="st5" width="4.48" height="16.19"/>
<rect x="336.6" y="277.73" transform="matrix(-1 -3.263111e-10 3.263111e-10 -1 677.6793 571.6492)" class="st18" width="4.48" height="16.19"/>
<rect x="330.76" y="326.56" transform="matrix(-1 -1.238255e-10 1.238255e-10 -1 673.2542 669.302)" class="st1" width="11.74" height="16.19"/>
<rect x="330.76" y="310.28" transform="matrix(-1 -1.236705e-10 1.236705e-10 -1 673.2542 636.7511)" class="st1" width="11.74" height="16.19"/>
<rect x="255.15" y="423.5" transform="matrix(-1 -4.745516e-10 4.745516e-10 -1 513.3561 863.1953)" class="st0" width="3.06" height="16.19"/>
<rect x="255.15" y="407.23" transform="matrix(-1 -4.745516e-10 4.745516e-10 -1 513.3561 830.6443)" class="st0" width="3.06" height="16.19"/>
<rect x="253.74" y="456.05" transform="matrix(-1 -3.246879e-10 3.246879e-10 -1 511.9549 928.2971)" class="st0" width="4.48" height="16.19"/>
<rect x="253.74" y="439.78" transform="matrix(-1 -3.259052e-10 3.259052e-10 -1 511.9549 895.7462)" class="st1" width="4.48" height="16.19"/>
<rect x="258.17" y="423.5" transform="matrix(-1 -4.745516e-10 4.745516e-10 -1 519.4038 863.1953)" class="st1" width="3.06" height="16.19"/>
<rect x="258.16" y="456.05" transform="matrix(-1 -3.246879e-10 3.246879e-10 -1 520.805 928.2971)" class="st5" width="4.48" height="16.19"/>
<rect x="258.16" y="439.78" transform="matrix(-1 -3.259052e-10 3.259052e-10 -1 520.805 895.7462)" class="st18" width="4.48" height="16.19"/>
<rect x="252.32" y="472.33" transform="matrix(-1 -1.239805e-10 1.239805e-10 -1 516.3799 960.8481)" class="st1" width="11.74" height="16.19"/>
<rect x="368.43" y="261.45" transform="matrix(-1 -3.299329e-11 3.299329e-11 -1 781.1893 539.0983)" class="st1" width="44.33" height="16.19"/>
<rect x="390.59" y="245.18" transform="matrix(-1 -6.598601e-11 6.598601e-11 -1 803.3527 506.5473)" class="st0" width="22.16" height="16.19"/>
<rect x="432" y="228.27" transform="matrix(-1 -4.745516e-10 4.745516e-10 -1 867.0635 472.7209)" class="st5" width="3.06" height="16.19"/>
<rect x="432" y="211.99" transform="matrix(-1 -4.739574e-10 4.739574e-10 -1 867.0635 440.17)" class="st1" width="3.06" height="16.19"/>
<rect x="432" y="260.82" transform="matrix(-1 -4.775212e-10 4.775212e-10 -1 867.0635 537.8228)" class="st1" width="3.06" height="16.19"/>
<rect x="432" y="244.54" transform="matrix(-1 -4.745516e-10 4.745516e-10 -1 867.0635 505.2718)" class="st4" width="3.06" height="16.19"/>
<rect x="435.02" y="228.27" transform="matrix(-1 -4.745516e-10 4.745516e-10 -1 873.1112 472.7209)" class="st0" width="3.06" height="16.19"/>
<rect x="435.02" y="211.99" transform="matrix(-1 -4.739574e-10 4.739574e-10 -1 873.1112 440.17)" class="st0" width="3.06" height="16.19"/>
<rect x="435.02" y="260.82" transform="matrix(-1 -4.775212e-10 4.775212e-10 -1 873.1112 537.8228)" class="st1" width="3.06" height="16.19"/>
<rect x="435.02" y="244.54" transform="matrix(-1 -4.745516e-10 4.745516e-10 -1 873.1112 505.2718)" class="st0" width="3.06" height="16.19"/>
<rect x="447.62" y="294.06" transform="matrix(-1 -9.656828e-10 9.656828e-10 -1 896.7371 604.3054)" class="st5" width="1.51" height="16.19"/>
<rect x="451.02" y="294.06" transform="matrix(-1 -1.277892e-09 1.277892e-09 -1 903.1873 604.3054)" class="st1" width="1.14" height="16.19"/>
<rect x="447.62" y="310.33" transform="matrix(-1 -6.340822e-10 6.340822e-10 -1 897.5223 636.8565)" class="st4" width="2.29" height="16.19"/>
<rect x="449.31" y="294.06" transform="matrix(-1 -8.472246e-10 8.472246e-10 -1 900.3331 604.3054)" class="st0" width="1.72" height="16.19"/>
<rect x="449.25" y="277.87" transform="matrix(-1 -1.276295e-09 1.276295e-09 -1 899.6355 571.925)" class="st0" width="1.14" height="16.19"/>
<rect x="449.88" y="310.33" transform="matrix(-1 -6.340822e-10 6.340822e-10 -1 902.0485 636.8565)" class="st0" width="2.29" height="16.19"/>
<rect x="667.98" y="391.07" transform="matrix(-1 -4.321045e-11 4.321045e-11 -1 1369.7688 798.3368)" class="st0" width="33.8" height="16.19"/>
<rect x="677.31" y="374.8" transform="matrix(-1 -6.676583e-11 6.676583e-11 -1 1376.5033 765.7859)" class="st18" width="21.88" height="16.19"/>
<rect x="663.02" y="423.62" transform="matrix(-1 -3.753854e-11 3.753854e-11 -1 1364.8066 863.4387)" class="st18" width="38.77" height="16.19"/>
<rect x="666.81" y="407.35" transform="matrix(-1 -4.155310e-11 4.155310e-11 -1 1368.5956 830.8878)" class="st18" width="34.98" height="16.19"/>
<rect x="702.83" y="391.38" transform="matrix(-1 -5.139368e-11 5.139368e-11 -1 1433.944 798.9545)" class="st0" width="28.28" height="16.19"/>
<rect x="704.7" y="375.11" transform="matrix(-1 -7.053703e-11 7.053703e-11 -1 1430.0353 766.4036)" class="st5" width="20.63" height="16.19"/>
<rect x="701.48" y="423.93" transform="matrix(-1 -4.613433e-11 4.613433e-11 -1 1434.506 864.0563)" class="st0" width="31.54" height="16.19"/>
<rect x="701.79" y="407.66" transform="matrix(-1 -4.681645e-11 4.681645e-11 -1 1434.8104 831.5054)" class="st5" width="31.24" height="16.19"/>
<rect x="732.62" y="391.38" transform="matrix(-1 -4.909019e-11 4.909019e-11 -1 1494.8562 798.9545)" class="st0" width="29.61" height="16.19"/>
<rect x="732.62" y="375.11" transform="matrix(-1 -5.311053e-11 5.311053e-11 -1 1492.6494 766.4036)" class="st1" width="27.4" height="16.19"/>
<rect x="732.62" y="423.93" transform="matrix(-1 -4.613433e-11 4.613433e-11 -1 1496.7927 864.0563)" class="st1" width="31.54" height="16.19"/>
<rect x="732.62" y="407.66" transform="matrix(-1 -4.584567e-11 4.584567e-11 -1 1496.7927 831.5054)" class="st0" width="31.54" height="16.19"/>
<rect x="738.05" y="326.28" transform="matrix(-1 -1.340995e-10 1.340995e-10 -1 1487.0084 668.7504)" class="st5" width="10.91" height="16.19"/>
<rect x="734.54" y="358.83" transform="matrix(-1 -1.009358e-10 1.009358e-10 -1 1483.4973 733.8523)" class="st5" width="14.42" height="16.19"/>
<rect x="736.28" y="342.56" transform="matrix(-1 -1.154922e-10 1.154922e-10 -1 1485.2356 701.3013)" class="st18" width="12.68" height="16.19"/>
<rect x="749.62" y="326.28" transform="matrix(-1 -7.870807e-10 7.870807e-10 -1 1501.0978 668.7491)" class="st6" width="1.85" height="16.19"/>
<rect x="749.62" y="310" transform="matrix(-1 -7.860971e-10 7.860971e-10 -1 1501.0978 636.1982)" class="st5" width="1.85" height="16.19"/>
<rect x="749.62" y="358.83" transform="matrix(-1 -3.910335e-10 3.910335e-10 -1 1502.9705 733.8518)" class="st1" width="3.72" height="16.19"/>
<rect x="749.62" y="342.56" transform="matrix(-1 -3.910335e-10 3.910335e-10 -1 1502.9705 701.3008)" class="st5" width="3.72" height="16.19"/>
<rect x="786.89" y="294.04" transform="matrix(-1 -4.313333e-10 4.313333e-10 -1 1577.141 604.2642)" class="st6" width="3.37" height="16.19"/>
<rect x="787.52" y="277.76" transform="matrix(-1 -7.870807e-10 7.870807e-10 -1 1576.8945 571.7131)" class="st1" width="1.85" height="16.19"/>
<rect x="753.3" y="358.83" transform="matrix(-1 -3.910335e-10 3.910335e-10 -1 1510.319 733.8518)" class="st5" width="3.72" height="16.19"/>
<rect x="753.3" y="342.56" transform="matrix(-1 -3.910335e-10 3.910335e-10 -1 1510.319 701.3008)" class="st6" width="3.72" height="16.19"/>
<rect x="673.52" y="374.8" transform="matrix(-1 -3.905446e-10 3.905446e-10 -1 1350.7534 765.7859)" class="st5" width="3.72" height="16.19"/>
<rect x="655.31" y="423.62" transform="matrix(-1 -3.905446e-10 3.905446e-10 -1 1314.351 863.4387)" class="st1" width="3.72" height="16.19"/>
<rect x="658.99" y="423.62" transform="matrix(-1 -3.905446e-10 3.905446e-10 -1 1321.6996 863.4387)" class="st5" width="3.72" height="16.19"/>
<rect x="663.09" y="407.35" transform="matrix(-1 -3.910335e-10 3.910335e-10 -1 1329.8921 830.8878)" class="st6" width="3.72" height="16.19"/>
<rect x="764.18" y="391.07" transform="matrix(-1 -5.223967e-11 5.223967e-11 -1 1556.2128 798.3369)" class="st5" width="27.86" height="16.19"/>
<rect x="764.18" y="375.43" transform="matrix(-1 -5.217439e-11 5.217439e-11 -1 1556.2128 767.0601)" class="st18" width="27.86" height="16.19"/>
<rect x="764.18" y="424.26" transform="matrix(-1 -5.223967e-11 5.223967e-11 -1 1556.2128 864.713)" class="st5" width="27.86" height="16.19"/>
<rect x="764.18" y="407.35" transform="matrix(-1 -5.217439e-11 5.217439e-11 -1 1556.2128 830.8878)" class="st18" width="27.86" height="16.19"/>
<rect x="791.96" y="391.38" transform="matrix(-1 -4.029755e-10 4.029755e-10 -1 1587.5396 798.9525)" class="st0" width="3.61" height="16.19"/>
<rect x="791.96" y="375.11" transform="matrix(-1 -4.049904e-10 4.049904e-10 -1 1587.5396 766.4016)" class="st5" width="3.61" height="16.19"/>
<rect x="791.96" y="423.93" transform="matrix(-1 -4.029755e-10 4.029755e-10 -1 1587.5396 864.0544)" class="st1" width="3.61" height="16.19"/>
<rect x="791.96" y="407.66" transform="matrix(-1 -4.024719e-10 4.024719e-10 -1 1587.5396 831.5035)" class="st5" width="3.61" height="16.19"/>
<rect x="795.53" y="423.93" transform="matrix(-1 -4.029755e-10 4.029755e-10 -1 1594.6703 864.0544)" class="st1" width="3.61" height="16.19"/>
<rect x="795.53" y="407.66" transform="matrix(-1 -4.024719e-10 4.024719e-10 -1 1594.6703 831.5035)" class="st5" width="3.61" height="16.19"/>
<rect x="785.43" y="326.3" transform="matrix(-1 -2.197066e-10 2.197066e-10 -1 1577.4691 668.7908)" class="st5" width="6.62" height="16.19"/>
<rect x="785.43" y="310.02" transform="matrix(-1 -2.199819e-10 2.199819e-10 -1 1577.4691 636.2399)" class="st5" width="6.62" height="16.19"/>
<rect x="785.43" y="358.85" transform="matrix(-1 -2.197066e-10 2.197066e-10 -1 1577.4691 733.8927)" class="st1" width="6.62" height="16.19"/>
<rect x="785.43" y="342.58" transform="matrix(-1 -2.210815e-10 2.210815e-10 -1 1577.4691 701.3417)" class="st5" width="6.62" height="16.19"/>
<rect x="797.39" y="325.66" transform="matrix(-1 -1.705420e-09 1.705420e-09 -1 1595.6392 667.5145)" class="st5" width="0.86" height="16.19"/>
<rect x="797.39" y="309.39" transform="matrix(-1 -1.694814e-09 1.694814e-09 -1 1595.6392 634.9636)" class="st5" width="0.86" height="16.19"/>
<rect x="797.39" y="358.21" transform="matrix(-1 -1.696935e-09 1.696935e-09 -1 1595.6392 732.6164)" class="st1" width="0.86" height="16.19"/>
<rect x="797.39" y="341.94" transform="matrix(-1 -1.694814e-09 1.694814e-09 -1 1595.6392 700.0654)" class="st1" width="0.86" height="16.19"/>
<rect x="798.24" y="325.66" transform="matrix(-1 -1.705420e-09 1.705420e-09 -1 1597.3325 667.5145)" class="st5" width="0.86" height="16.19"/>
<rect x="798.24" y="309.39" transform="matrix(-1 -1.694814e-09 1.694814e-09 -1 1597.3325 634.9636)" class="st5" width="0.86" height="16.19"/>
<rect x="798.24" y="358.21" transform="matrix(-1 -1.696935e-09 1.696935e-09 -1 1597.3325 732.6164)" class="st1" width="0.86" height="16.19"/>
<rect x="798.24" y="341.94" transform="matrix(-1 -1.694814e-09 1.694814e-09 -1 1597.3325 700.0654)" class="st1" width="0.86" height="16.19"/>
<rect x="707.49" y="277.17" transform="matrix(-1 -8.472792e-10 8.472792e-10 -1 1416.7104 570.5355)" class="st5" width="1.73" height="16.19"/>
<rect x="707.49" y="260.9" transform="matrix(-1 -8.430640e-10 8.430640e-10 -1 1416.7104 537.9846)" class="st5" width="1.73" height="16.19"/>
<rect x="707.49" y="309.72" transform="matrix(-1 -8.420101e-10 8.420101e-10 -1 1416.7104 635.6375)" class="st1" width="1.73" height="16.19"/>
<rect x="707.49" y="293.45" transform="matrix(-1 -8.420101e-10 8.420101e-10 -1 1416.7104 603.0865)" class="st0" width="1.73" height="16.19"/>
<rect x="709.2" y="277.17" transform="matrix(-1 -8.472792e-10 8.472792e-10 -1 1420.1189 570.5355)" class="st0" width="1.73" height="16.19"/>
<rect x="709.2" y="260.9" transform="matrix(-1 -8.430640e-10 8.430640e-10 -1 1420.1189 537.9846)" class="st0" width="1.73" height="16.19"/>
<rect x="709.2" y="309.72" transform="matrix(-1 -8.420101e-10 8.420101e-10 -1 1420.1189 635.6375)" class="st1" width="1.73" height="16.19"/>
<rect x="709.2" y="293.45" transform="matrix(-1 -8.420101e-10 8.420101e-10 -1 1420.1189 603.0865)" class="st0" width="1.73" height="16.19"/>
<rect x="682.19" y="357.91" transform="matrix(-1 -1.696938e-09 1.696938e-09 -1 1365.2465 732.0012)" class="st1" width="0.86" height="16.19"/>
<rect x="682.19" y="341.63" transform="matrix(-1 -1.696938e-09 1.696938e-09 -1 1365.2465 699.4502)" class="st4" width="0.86" height="16.19"/>
<rect x="683.04" y="357.91" transform="matrix(-1 -1.696938e-09 1.696938e-09 -1 1366.9399 732.0012)" class="st1" width="0.86" height="16.19"/>
<rect x="683.04" y="341.63" transform="matrix(-1 -1.696938e-09 1.696938e-09 -1 1366.9399 699.4502)" class="st4" width="0.86" height="16.19"/>
<rect x="684.09" y="325.35" transform="matrix(-1 -1.694816e-09 1.694816e-09 -1 1369.0283 666.9)" class="st0" width="0.86" height="16.19"/>
<rect x="684.09" y="309.08" transform="matrix(-1 -1.694816e-09 1.694816e-09 -1 1369.0283 634.3491)" class="st0" width="0.86" height="16.19"/>
<rect x="684.09" y="357.91" transform="matrix(-1 -1.696938e-09 1.696938e-09 -1 1369.0283 732.0018)" class="st1" width="0.86" height="16.19"/>
<rect x="684.09" y="341.63" transform="matrix(-1 -1.694816e-09 1.694816e-09 -1 1369.0283 699.4509)" class="st4" width="0.86" height="16.19"/>
<rect x="684.93" y="325.35" transform="matrix(-1 -1.694816e-09 1.694816e-09 -1 1370.7217 666.9)" class="st0" width="0.86" height="16.19"/>
<rect x="684.93" y="309.08" transform="matrix(-1 -1.694816e-09 1.694816e-09 -1 1370.7217 634.3491)" class="st0" width="0.86" height="16.19"/>
<rect x="684.93" y="357.91" transform="matrix(-1 -1.696938e-09 1.696938e-09 -1 1370.7217 732.0018)" class="st1" width="0.86" height="16.19"/>
<rect x="684.93" y="341.63" transform="matrix(-1 -1.694816e-09 1.694816e-09 -1 1370.7217 699.4509)" class="st4" width="0.86" height="16.19"/>
<rect x="705.9" y="342.27" transform="matrix(-1 -2.210815e-10 2.210815e-10 -1 1418.4147 700.7393)" class="st1" width="6.62" height="16.19"/>
<rect x="705.9" y="326" transform="matrix(-1 -2.197066e-10 2.197066e-10 -1 1418.4147 668.1884)" class="st1" width="6.62" height="16.19"/>
<rect x="673.53" y="358.52" transform="matrix(-1 -4.268764e-10 4.268764e-10 -1 1350.4625 733.2354)" class="st1" width="3.4" height="16.19"/>
<rect x="705.9" y="358.55" transform="matrix(-1 -2.197066e-10 2.197066e-10 -1 1418.4147 733.2902)" class="st0" width="6.62" height="16.19"/>
<rect x="688.77" y="325.33" transform="matrix(-1 -8.430640e-10 8.430640e-10 -1 1379.2653 666.8581)" class="st4" width="1.73" height="16.19"/>
<rect x="688.77" y="309.06" transform="matrix(-1 -8.420101e-10 8.420101e-10 -1 1379.2653 634.3071)" class="st4" width="1.73" height="16.19"/>
<rect x="688.77" y="357.88" transform="matrix(-1 -8.472792e-10 8.472792e-10 -1 1379.2653 731.96)" class="st1" width="1.73" height="16.19"/>
<rect x="688.77" y="341.61" transform="matrix(-1 -8.420101e-10 8.420101e-10 -1 1379.2653 699.409)" class="st4" width="1.73" height="16.19"/>
<rect x="690.47" y="325.33" transform="matrix(-1 -8.430640e-10 8.430640e-10 -1 1382.6737 666.8581)" class="st0" width="1.73" height="16.19"/>
<rect x="690.47" y="309.06" transform="matrix(-1 -8.420101e-10 8.420101e-10 -1 1382.6737 634.3071)" class="st0" width="1.73" height="16.19"/>
<rect x="690.47" y="357.88" transform="matrix(-1 -8.472792e-10 8.472792e-10 -1 1382.6737 731.96)" class="st1" width="1.73" height="16.19"/>
<rect x="690.47" y="341.61" transform="matrix(-1 -8.420101e-10 8.420101e-10 -1 1382.6737 699.409)" class="st4" width="1.73" height="16.19"/>
<rect x="664.47" y="391.07" transform="matrix(-1 -8.430640e-10 8.430640e-10 -1 1330.6597 798.3368)" class="st3" width="1.73" height="16.19"/>
<rect x="670.24" y="374.8" transform="matrix(-1 -8.420101e-10 8.420101e-10 -1 1342.208 765.7859)" class="st4" width="1.73" height="16.19"/>
<rect x="651.4" y="423.62" transform="matrix(-1 -8.420101e-10 8.420101e-10 -1 1304.5314 863.4387)" class="st1" width="1.73" height="16.19"/>
<rect x="666.17" y="391.07" transform="matrix(-1 -8.430640e-10 8.430640e-10 -1 1334.0681 798.3368)" class="st4" width="1.73" height="16.19"/>
<rect x="671.95" y="374.8" transform="matrix(-1 -8.420101e-10 8.420101e-10 -1 1345.6165 765.7859)" class="st1" width="1.73" height="16.19"/>
<rect x="653.11" y="423.62" transform="matrix(-1 -8.420101e-10 8.420101e-10 -1 1307.9398 863.4387)" class="st6" width="1.73" height="16.19"/>
<rect x="324.86" y="358.88" transform="matrix(-1 -4.416145e-12 4.416145e-12 -1 978.8277 733.9601)" class="st18" width="329.11" height="16.19"/>
<rect x="325.85" y="342.61" transform="matrix(-1 -4.515621e-12 4.515621e-12 -1 975.5875 701.4091)" class="st5" width="323.88" height="16.19"/>
<rect x="320.92" y="391.44" transform="matrix(-1 -4.302459e-12 4.302459e-12 -1 981.7715 799.062)" class="st5" width="339.93" height="16.19"/>
<rect x="321.47" y="375.16" transform="matrix(-1 -4.329548e-12 4.329548e-12 -1 978.6494 766.511)" class="st3" width="335.7" height="16.19"/>
<polyline class="st19" points="838.19,557.02 192.01,557.02 192.01,120.76 "/>
<g>
	<polygon class="st20" points="192.01,115.64 185.91,121.75 192.01,121.75 	"/>
	<polygon class="st20" points="192.01,115.64 198.12,121.75 192.01,121.75 	"/>
</g>
<g>
	<polygon class="st20" points="844.29,557.02 838.19,550.92 838.19,557.02 	"/>
	<polygon class="st20" points="844.29,557.02 838.19,563.13 838.19,557.02 	"/>
</g>
<text transform="matrix(1 0 0 1 62.6398 335.2871)" class="st21 st22">Stack</text>
<text transform="matrix(1 0 0 1 448.7614 611.2295)" class="st21 st22">Alphabet</text>
</svg>
