<?xml version="1.0" encoding="utf-8"?>
<!-- Generator: Adobe Illustrator 27.3.1, SVG Export Plug-In . SVG Version: 6.00 Build 0)  -->
<svg version="1.1" id="katman_1" xmlns="http://www.w3.org/2000/svg" xmlns:xlink="http://www.w3.org/1999/xlink" x="0px" y="0px"
	 viewBox="0 0 618.2 349.8" style="enable-background:new 0 0 618.2 349.8;" xml:space="preserve">
<style type="text/css">
	.st0{fill:#80C0BE;stroke:#FFFFFF;stroke-miterlimit:10;}
	.st1{fill:#7DB3DF;stroke:#FFFFFF;stroke-width:1;stroke-miterlimit:10;}
	.st2{fill:#C8D0D0;stroke:#FFFFFF;stroke-miterlimit:10;}
	.st3{fill:#CCDFE5;stroke:#FFFFFF;stroke-miterlimit:10;}
	.st4{fill:#7DB3DF;stroke:#FFFFFF;stroke-miterlimit:10;}
	.st5{fill:#89C6D7;stroke:#FFFFFF;stroke-miterlimit:10;}
	.st6{fill:#45569E;stroke:#FFFFFF;stroke-miterlimit:10;}
	.st7{fill:#5C8FC9;stroke:#FFFFFF;stroke-miterlimit:10;}
	.st8{fill:#B4D6C7;stroke:#FFFFFF;stroke-miterlimit:10;}
	.st9{fill:#F1EA7A;stroke:#FFFFFF;stroke-miterlimit:10;}
	.st10{fill:none;stroke:#010202;stroke-miterlimit:10;}
	.st11{fill:#010202;}
	.st12{fill:#CC4128;}
	.st13{fill:#4057A2;stroke:#FFFFFF;stroke-miterlimit:10;}
	.st14{fill:#4B90CD;stroke:#FFFFFF;stroke-miterlimit:10;}
	.st15{fill:#76C8D9;stroke:#FFFFFF;stroke-miterlimit:10;}
	.st16{fill:#DD3014;stroke:#FFFFFF;stroke-miterlimit:10;}
	.st17{fill:#EA6038;stroke:#FFFFFF;stroke-miterlimit:10;}
	.st18{fill:#F9B30E;stroke:#FFFFFF;stroke-miterlimit:10;}
	.st19{fill:#AAD6C5;stroke:#FFFFFF;stroke-miterlimit:10;}
	.st20{fill:#223A81;stroke:#FFFFFF;stroke-miterlimit:10;}
	.st21{fill:#C6E0E5;stroke:#FFFFFF;stroke-miterlimit:10;}
	.st22{fill:none;}
	.st23{fill:#DB6944;stroke:#FFFFFF;stroke-miterlimit:10;}
	.st24{fill:#8A261D;stroke:#FFFFFF;stroke-miterlimit:10;}
	.st25{fill:#CC4128;stroke:#FFFFFF;stroke-miterlimit:10;}
	.st26{fill:#EFB742;stroke:#FFFFFF;stroke-miterlimit:10;}
	.st27{fill:#F3F0B5;stroke:#FFFFFF;stroke-miterlimit:10;}
	.st28{fill:none;stroke:#000000;stroke-miterlimit:10;}
	.st29{fill:#FFFFFF;stroke:#000000;stroke-miterlimit:10;}
	.st30{fill:#45ACAB;}
	.st31{fill:#F1E966;stroke:#FFFFFF;stroke-miterlimit:10;}
	.st32{fill:#951914;stroke:#FFFFFF;stroke-miterlimit:10;}
	.st33{fill:#E74526;stroke:#FFFFFF;stroke-miterlimit:10;}
	.st34{fill:#F18C56;stroke:#FFFFFF;stroke-miterlimit:10;}
	.st35{fill:#F3EFAD;stroke:#FFFFFF;stroke-miterlimit:10;}
	.st36{fill:#C6D0CF;stroke:#FFFFFF;stroke-miterlimit:10;}
	.st37{fill:#6CB3E3;stroke:#FFFFFF;stroke-miterlimit:10;}
	.st38{fill:#3ABBD4;stroke:#FFFFFF;stroke-miterlimit:10;}
	.st39{fill:#6BC1BD;stroke:#FFFFFF;stroke-miterlimit:10;}
	.st40{fill:#EC6C70;stroke:#FFFFFF;stroke-miterlimit:10;}
	.st41{fill:#1AB2AA;stroke:#FFFFFF;stroke-miterlimit:10;}
	.st42{fill:#EAF5F6;stroke:#FFFFFF;stroke-miterlimit:10;}
</style>
<rect x="60" y="174.5" class="st23" width="449.8" height="39.9"/>
<rect x="59.3" y="214.4" class="st24" width="526.5" height="39.9"/>
<rect x="509.8" y="174.5" class="st25" width="76" height="39.9"/>
<rect x="135.8" y="134.7" class="st26" width="356.3" height="39.9"/>
<rect x="136.7" y="94" class="st27" width="263.4" height="39.9"/>
<rect x="60" y="134.7" class="st9" width="75.8" height="39.9"/>
<g>
	<polygon class="st11" points="485.1,154.1 478.5,160.6 478.5,154.1 	"/>
	<polygon class="st11" points="485.1,154.1 478.5,147.5 478.5,154.1 	"/>
</g>
<g>
	<polygon class="st11" points="582.7,195.8 576.2,202.4 576.2,195.8 	"/>
	<polygon class="st11" points="582.7,195.8 576.2,189.3 576.2,195.8 	"/>
</g>
<g>
	<polygon class="st11" points="519.1,195.8 519.1,202.3 512.6,195.8 	"/>
	<polygon class="st11" points="519.1,195.8 519.1,189.3 512.6,195.8 	"/>
</g>
<g>
	<polygon class="st11" points="139.3,154.2 145.8,147.7 145.8,154.2 	"/>
	<polygon class="st11" points="139.3,154.2 145.8,160.7 145.8,154.2 	"/>
</g>
<path class="st11" d="M480,153H143.6c0,0.7,0,1.4,0,2.2h336C479.8,154.4,479.8,153.7,480,153z"/>
<g>
	<polygon class="st11" points="392.9,114 386.4,120.5 386.4,114 	"/>
	<polygon class="st11" points="392.9,114 386.4,107.4 386.4,114 	"/>
</g>
<g>
	<polygon class="st11" points="150.1,113.9 156.6,107.4 156.6,113.9 	"/>
	<polygon class="st11" points="150.1,113.9 156.6,120.5 156.6,113.9 	"/>
</g>
<path class="st11" d="M388.3,113h-237c0,0.6,0,1.2,0,1.8H388C388.1,114.3,388.2,113.6,388.3,113z"/>
<g>
	<polygon class="st11" points="500.1,195.8 493.6,202.3 493.6,195.8 	"/>
	<polygon class="st11" points="500.1,195.8 493.6,189.3 493.6,195.8 	"/>
</g>
<g>
	<polygon class="st11" points="70,196.5 76.4,190 76.4,196.5 	"/>
	<polygon class="st11" points="70,196.5 76.4,203 76.4,196.5 	"/>
</g>
<path class="st11" d="M495,194.9H75.3c0,0.6,0,1.2,0,1.8h419.2C494.8,196.1,494.9,195.5,495,194.9z"/>
<path class="st11" d="M516.5,194.9c-0.1,0.6-0.2,1.2-0.3,1.8H581c0.2-0.6,0.3-1.2,0.4-1.8H516.5z"/>
<g>
	<polygon class="st11" points="130.2,154.6 123.7,161.1 123.7,154.6 	"/>
	<polygon class="st11" points="130.2,154.6 123.7,148.1 123.7,154.6 	"/>
</g>
<g>
	<polygon class="st11" points="63.3,155.1 69.8,148.6 69.8,155.1 	"/>
	<polygon class="st11" points="63.3,155.1 69.8,161.6 69.8,155.1 	"/>
</g>
<path class="st11" d="M125.9,154.2H67c0,0.6,0,1.2-0.2,1.8h59.1C125.8,155.4,125.8,154.8,125.9,154.2z"/>
<g>
	<polygon class="st11" points="579.4,237.9 573,244.5 573,237.9 	"/>
	<polygon class="st11" points="579.4,237.9 573,231.4 573,237.9 	"/>
</g>
<g>
	<polygon class="st11" points="68.3,237.9 74.7,231.4 74.7,237.9 	"/>
	<polygon class="st11" points="68.3,237.9 74.7,244.5 74.7,237.9 	"/>
</g>
<path class="st11" d="M574.3,237H73.9c0,0.6,0,1.2,0,1.8h499.8C574,238.2,574.1,237.6,574.3,237z"/>
</svg>
