<?xml version="1.0" encoding="utf-8"?>
<!-- Generator: Adobe Illustrator 27.3.1, SVG Export Plug-In . SVG Version: 6.00 Build 0)  -->
<svg version="1.1" id="katman_1" xmlns="http://www.w3.org/2000/svg" xmlns:xlink="http://www.w3.org/1999/xlink" x="0px" y="0px"
	 viewBox="0 0 661.1 496.8" style="enable-background:new 0 0 661.1 496.8;" xml:space="preserve">
<style type="text/css">
	.st0{fill:#80C0BE;stroke:#FFFFFF;stroke-miterlimit:10;}
	.st1{fill:#7DB3DF;stroke:#FFFFFF;stroke-width:1;stroke-miterlimit:10;}
	.st2{fill:#C8D0D0;stroke:#FFFFFF;stroke-miterlimit:10;}
	.st3{fill:#CCDFE5;stroke:#FFFFFF;stroke-miterlimit:10;}
	.st4{fill:#7DB3DF;stroke:#FFFFFF;stroke-miterlimit:10;}
	.st5{fill:#89C6D7;stroke:#FFFFFF;stroke-miterlimit:10;}
	.st6{fill:#45569E;stroke:#FFFFFF;stroke-miterlimit:10;}
	.st7{fill:#5C8FC9;stroke:#FFFFFF;stroke-miterlimit:10;}
	.st8{fill:#B4D6C7;stroke:#FFFFFF;stroke-miterlimit:10;}
	.st9{fill:#F1EA7A;stroke:#FFFFFF;stroke-miterlimit:10;}
	.st10{fill:none;stroke:#010202;stroke-miterlimit:10;}
	.st11{fill:#010202;}
	.st12{fill:#CC4128;}
	.st13{fill:#4057A2;stroke:#FFFFFF;stroke-miterlimit:10;}
	.st14{fill:#4B90CD;stroke:#FFFFFF;stroke-miterlimit:10;}
	.st15{fill:#76C8D9;stroke:#FFFFFF;stroke-miterlimit:10;}
	.st16{fill:#DD3014;stroke:#FFFFFF;stroke-miterlimit:10;}
	.st17{fill:#EA6038;stroke:#FFFFFF;stroke-miterlimit:10;}
	.st18{fill:#F9B30E;stroke:#FFFFFF;stroke-miterlimit:10;}
	.st19{fill:#AAD6C5;stroke:#FFFFFF;stroke-miterlimit:10;}
	.st20{fill:#223A81;stroke:#FFFFFF;stroke-miterlimit:10;}
	.st21{fill:#C6E0E5;stroke:#FFFFFF;stroke-miterlimit:10;}
	.st22{fill:none;}
	.st23{fill:#DB6944;stroke:#FFFFFF;stroke-miterlimit:10;}
	.st24{fill:#8A261D;stroke:#FFFFFF;stroke-miterlimit:10;}
	.st25{fill:#CC4128;stroke:#FFFFFF;stroke-miterlimit:10;}
	.st26{fill:#EFB742;stroke:#FFFFFF;stroke-miterlimit:10;}
	.st27{fill:#F3F0B5;stroke:#FFFFFF;stroke-miterlimit:10;}
	.st28{fill:none;stroke:#000000;stroke-miterlimit:10;}
	.st29{fill:#FFFFFF;stroke:#000000;stroke-miterlimit:10;}
	.st30{fill:#45ACAB;}
	.st31{fill:#F1E966;stroke:#FFFFFF;stroke-miterlimit:10;}
	.st32{fill:#951914;stroke:#FFFFFF;stroke-miterlimit:10;}
	.st33{fill:#E74526;stroke:#FFFFFF;stroke-miterlimit:10;}
	.st34{fill:#F18C56;stroke:#FFFFFF;stroke-miterlimit:10;}
	.st35{fill:#F3EFAD;stroke:#FFFFFF;stroke-miterlimit:10;}
	.st36{fill:#C6D0CF;stroke:#FFFFFF;stroke-miterlimit:10;}
	.st37{fill:#6CB3E3;stroke:#FFFFFF;stroke-miterlimit:10;}
	.st38{fill:#3ABBD4;stroke:#FFFFFF;stroke-miterlimit:10;}
	.st39{fill:#6BC1BD;stroke:#FFFFFF;stroke-miterlimit:10;}
	.st40{fill:#EC6C70;stroke:#FFFFFF;stroke-miterlimit:10;}
	.st41{fill:#1AB2AA;stroke:#FFFFFF;stroke-miterlimit:10;}
	.st42{fill:#EAF5F6;stroke:#FFFFFF;stroke-miterlimit:10;}
</style>
<g>
	<rect x="370.3" y="103.9" class="st13" width="39.7" height="39.7"/>
	<rect x="370.3" y="143.6" class="st14" width="39.7" height="39.7"/>
	<rect x="370.3" y="183.3" class="st36" width="39.7" height="39.7"/>
	<rect x="370.3" y="223" class="st15" width="39.7" height="39.7"/>
</g>
<g>
	<rect x="529.3" y="103.9" class="st13" width="39.7" height="39.7"/>
	<rect x="529.3" y="143.6" class="st21" width="39.7" height="39.7"/>
	<rect x="529.3" y="183.3" class="st19" width="39.7" height="39.7"/>
	<rect x="529.3" y="223" class="st14" width="39.7" height="39.7"/>
	<rect x="529.3" y="262.7" class="st20" width="39.7" height="39.7"/>
	<rect x="529.3" y="302.4" class="st15" width="39.7" height="39.7"/>
</g>
<g>
	<rect x="171.9" y="103.9" class="st13" width="39.7" height="39.7"/>
	<rect x="171.7" y="143.6" class="st14" width="39.7" height="39.7"/>
</g>
<g>
	<rect x="251.4" y="103.9" class="st13" width="39.7" height="39.7"/>
	<rect x="251.4" y="143.6" class="st14" width="39.7" height="39.7"/>
	<rect x="251.4" y="183.3" class="st15" width="39.7" height="39.7"/>
</g>
<g>
	<rect x="92.1" y="103.9" class="st13" width="39.7" height="39.7"/>
	<rect x="92.1" y="183.3" class="st21" width="39.7" height="39.7"/>
	<rect x="92.1" y="143.6" class="st15" width="39.7" height="39.7"/>
	<rect x="92.1" y="223" class="st19" width="39.7" height="39.7"/>
</g>
<g>
	<rect x="449.5" y="103.9" class="st13" width="39.7" height="39.7"/>
	<rect x="449.5" y="143.6" class="st21" width="39.7" height="39.7"/>
	<rect x="449.5" y="183.3" class="st19" width="39.7" height="39.7"/>
	<rect x="449.5" y="223" class="st37" width="39.7" height="39.7"/>
	<rect x="449.5" y="262.7" class="st38" width="39.7" height="39.7"/>
	<rect x="449.5" y="302.4" class="st39" width="39.7" height="39.7"/>
</g>
<g>
	<rect x="211.6" y="103.9" class="st13" width="39.7" height="39.7"/>
	<rect x="211.6" y="143.6" class="st14" width="39.7" height="39.7"/>
	<rect x="211.6" y="183.3" class="st15" width="39.7" height="39.7"/>
</g>
<g>
	<rect x="131.9" y="103.9" class="st13" width="39.7" height="39.7"/>
	<rect x="131.9" y="183.3" class="st21" width="39.7" height="39.7"/>
	<rect x="131.9" y="143.6" class="st15" width="39.7" height="39.7"/>
	<rect x="131.9" y="223" class="st19" width="39.7" height="39.7"/>
</g>
<rect x="291" y="103.9" class="st13" width="39.7" height="39.7"/>
<rect x="291" y="143.6" class="st14" width="39.7" height="39.7"/>
<rect x="291" y="183.3" class="st36" width="39.7" height="39.7"/>
<g>
	<rect x="489.4" y="103.9" class="st13" width="39.7" height="39.7"/>
	<rect x="489.4" y="143.6" class="st21" width="39.7" height="39.7"/>
	<rect x="489.4" y="183.3" class="st19" width="39.7" height="39.7"/>
	<rect x="489.4" y="223" class="st14" width="39.7" height="39.7"/>
	<rect x="489.4" y="262.7" class="st15" width="39.7" height="39.7"/>
	<rect x="489.4" y="302.4" class="st39" width="39.7" height="39.7"/>
</g>
<g>
	<rect x="410.1" y="103.9" class="st13" width="39.7" height="39.7"/>
	<rect x="410.1" y="143.6" class="st21" width="39.7" height="39.7"/>
	<rect x="410.1" y="183.3" class="st36" width="39.7" height="39.7"/>
	<rect x="410.1" y="223" class="st14" width="39.7" height="39.7"/>
	<rect x="410.1" y="262.7" class="st38" width="39.7" height="39.7"/>
	<rect x="410.1" y="302.4" class="st19" width="39.7" height="39.7"/>
	<rect x="410.1" y="342.1" class="st20" width="39.7" height="39.7"/>
</g>
<g>
	<rect x="330.6" y="223" class="st19" width="39.7" height="39.7"/>
	<g>
		<rect x="330.7" y="103.9" class="st13" width="39.7" height="39.7"/>
		<rect x="330.7" y="183.3" class="st36" width="39.7" height="39.7"/>
		<rect x="330.7" y="143.6" class="st14" width="39.7" height="39.7"/>
	</g>
</g>
</svg>
