<?xml version="1.0" encoding="utf-8"?>
<!-- Generator: Adobe Illustrator 27.3.1, SVG Export Plug-In . SVG Version: 6.00 Build 0)  -->
<svg version="1.1" id="katman_1" xmlns="http://www.w3.org/2000/svg" xmlns:xlink="http://www.w3.org/1999/xlink" x="0px" y="0px"
	 viewBox="0 0 661.1 496.8" style="enable-background:new 0 0 661.1 496.8;" xml:space="preserve">
<style type="text/css">
	.st0{fill:#80C0BE;stroke:#FFFFFF;stroke-miterlimit:10;}
	.st1{fill:#7DB3DF;stroke:#FFFFFF;stroke-width:1;stroke-miterlimit:10;}
	.st2{fill:#C8D0D0;stroke:#FFFFFF;stroke-miterlimit:10;}
	.st3{fill:#CCDFE5;stroke:#FFFFFF;stroke-miterlimit:10;}
	.st4{fill:#7DB3DF;stroke:#FFFFFF;stroke-miterlimit:10;}
	.st5{fill:#89C6D7;stroke:#FFFFFF;stroke-miterlimit:10;}
	.st6{fill:#45569E;stroke:#FFFFFF;stroke-miterlimit:10;}
	.st7{fill:#5C8FC9;stroke:#FFFFFF;stroke-miterlimit:10;}
	.st8{fill:#B4D6C7;stroke:#FFFFFF;stroke-miterlimit:10;}
	.st9{fill:#F1EA7A;stroke:#FFFFFF;stroke-miterlimit:10;}
	.st10{fill:none;stroke:#010202;stroke-miterlimit:10;}
	.st11{fill:#010202;}
	.st12{fill:#CC4128;}
	.st13{fill:#4057A2;stroke:#FFFFFF;stroke-miterlimit:10;}
	.st14{fill:#4B90CD;stroke:#FFFFFF;stroke-miterlimit:10;}
	.st15{fill:#76C8D9;stroke:#FFFFFF;stroke-miterlimit:10;}
	.st16{fill:#DD3014;stroke:#FFFFFF;stroke-miterlimit:10;}
	.st17{fill:#EA6038;stroke:#FFFFFF;stroke-miterlimit:10;}
	.st18{fill:#F9B30E;stroke:#FFFFFF;stroke-miterlimit:10;}
	.st19{fill:#AAD6C5;stroke:#FFFFFF;stroke-miterlimit:10;}
	.st20{fill:#223A81;stroke:#FFFFFF;stroke-miterlimit:10;}
	.st21{fill:#C6E0E5;stroke:#FFFFFF;stroke-miterlimit:10;}
	.st22{fill:none;}
	.st23{fill:#DB6944;stroke:#FFFFFF;stroke-miterlimit:10;}
	.st24{fill:#8A261D;stroke:#FFFFFF;stroke-miterlimit:10;}
	.st25{fill:#CC4128;stroke:#FFFFFF;stroke-miterlimit:10;}
	.st26{fill:#EFB742;stroke:#FFFFFF;stroke-miterlimit:10;}
	.st27{fill:#F3F0B5;stroke:#FFFFFF;stroke-miterlimit:10;}
	.st28{fill:none;stroke:#000000;stroke-miterlimit:10;}
	.st29{fill:#FFFFFF;stroke:#000000;stroke-miterlimit:10;}
	.st30{fill:#45ACAB;}
	.st31{fill:#F1E966;stroke:#FFFFFF;stroke-miterlimit:10;}
	.st32{fill:#951914;stroke:#FFFFFF;stroke-miterlimit:10;}
	.st33{fill:#E74526;stroke:#FFFFFF;stroke-miterlimit:10;}
	.st34{fill:#F18C56;stroke:#FFFFFF;stroke-miterlimit:10;}
	.st35{fill:#F3EFAD;stroke:#FFFFFF;stroke-miterlimit:10;}
	.st36{fill:#C6D0CF;stroke:#FFFFFF;stroke-miterlimit:10;}
	.st37{fill:#6CB3E3;stroke:#FFFFFF;stroke-miterlimit:10;}
	.st38{fill:#3ABBD4;stroke:#FFFFFF;stroke-miterlimit:10;}
	.st39{fill:#6BC1BD;stroke:#FFFFFF;stroke-miterlimit:10;}
	.st40{fill:#EC6C70;stroke:#FFFFFF;stroke-miterlimit:10;}
	.st41{fill:#1AB2AA;stroke:#FFFFFF;stroke-miterlimit:10;}
	.st42{fill:#EAF5F6;stroke:#FFFFFF;stroke-miterlimit:10;}
</style>
<g>
	
		<rect x="508.1" y="361.9" transform="matrix(-1 -1.224647e-16 1.224647e-16 -1 1055.9248 763.5339)" class="st32" width="39.7" height="39.7"/>
	
		<rect x="508.1" y="322.2" transform="matrix(-1 -1.224647e-16 1.224647e-16 -1 1055.9248 684.1349)" class="st16" width="39.7" height="39.7"/>
	
		<rect x="508.1" y="282.5" transform="matrix(-1 -1.224647e-16 1.224647e-16 -1 1055.9248 604.736)" class="st35" width="39.7" height="39.7"/>
</g>
<g>
	
		<rect x="113.7" y="361.9" transform="matrix(-1 -1.224647e-16 1.224647e-16 -1 267.1589 763.5339)" class="st32" width="39.7" height="39.7"/>
	
		<rect x="113.7" y="322.2" transform="matrix(-1 -1.224647e-16 1.224647e-16 -1 267.1589 684.1349)" class="st31" width="39.7" height="39.7"/>
	
		<rect x="113.7" y="282.5" transform="matrix(-1 -1.224647e-16 1.224647e-16 -1 267.1589 604.736)" class="st18" width="39.7" height="39.7"/>
	
		<rect x="113.7" y="242.8" transform="matrix(-1 -1.224647e-16 1.224647e-16 -1 267.1589 525.337)" class="st16" width="39.7" height="39.7"/>
	
		<rect x="113.7" y="203.1" transform="matrix(-1 -1.224647e-16 1.224647e-16 -1 267.1589 445.938)" class="st34" width="39.7" height="39.7"/>
	
		<rect x="113.7" y="163.4" transform="matrix(-1 -1.224647e-16 1.224647e-16 -1 267.1589 366.5391)" class="st17" width="39.7" height="39.7"/>
</g>
<g>
	
		<rect x="547.8" y="361.9" transform="matrix(-1 -1.224647e-16 1.224647e-16 -1 1135.3239 763.5339)" class="st32" width="39.7" height="39.7"/>
	
		<rect x="548" y="322.2" transform="matrix(-1 -1.224647e-16 1.224647e-16 -1 1135.7401 684.1349)" class="st16" width="39.7" height="39.7"/>
</g>
<g>
	
		<rect x="351.2" y="361.9" transform="matrix(-1 -1.224647e-16 1.224647e-16 -1 742.1108 763.5339)" class="st32" width="39.7" height="39.7"/>
	
		<rect x="351.2" y="322.2" transform="matrix(-1 -1.224647e-16 1.224647e-16 -1 742.1108 684.1349)" class="st16" width="39.7" height="39.7"/>
	
		<rect x="351.2" y="282.5" transform="matrix(-1 -1.224647e-16 1.224647e-16 -1 742.1108 604.736)" class="st17" width="39.7" height="39.7"/>
</g>
<g>
	
		<rect x="312.2" y="361.9" transform="matrix(-1 -1.224647e-16 1.224647e-16 -1 664.1537 763.5339)" class="st32" width="39.7" height="39.7"/>
	
		<rect x="312.2" y="282.5" transform="matrix(-1 -1.224647e-16 1.224647e-16 -1 664.1537 604.736)" class="st31" width="39.7" height="39.7"/>
	
		<rect x="312.2" y="322.2" transform="matrix(-1 -1.224647e-16 1.224647e-16 -1 664.1537 684.1349)" class="st17" width="39.7" height="39.7"/>
	
		<rect x="312.2" y="242.8" transform="matrix(-1 -1.224647e-16 1.224647e-16 -1 664.1537 525.337)" class="st18" width="39.7" height="39.7"/>
</g>
<g>
	
		<rect x="193.1" y="361.9" transform="matrix(-1 -1.224647e-16 1.224647e-16 -1 425.9568 763.5339)" class="st32" width="39.7" height="39.7"/>
	
		<rect x="193.1" y="322.2" transform="matrix(-1 -1.224647e-16 1.224647e-16 -1 425.9568 684.1349)" class="st31" width="39.7" height="39.7"/>
	
		<rect x="193.1" y="282.5" transform="matrix(-1 -1.224647e-16 1.224647e-16 -1 425.9568 604.736)" class="st18" width="39.7" height="39.7"/>
	
		<rect x="193.1" y="242.8" transform="matrix(-1 -1.224647e-16 1.224647e-16 -1 425.9568 525.337)" class="st17" width="39.7" height="39.7"/>
	
		<rect x="193.1" y="203.1" transform="matrix(-1 -1.224647e-16 1.224647e-16 -1 425.9568 445.938)" class="st34" width="39.7" height="39.7"/>
	
		<rect x="193.1" y="163.4" transform="matrix(-1 -1.224647e-16 1.224647e-16 -1 425.9568 366.5391)" class="st40" width="39.7" height="39.7"/>
</g>
<g>
	
		<rect x="390.9" y="361.9" transform="matrix(-1 -1.224647e-16 1.224647e-16 -1 821.5098 763.5339)" class="st32" width="39.7" height="39.7"/>
	
		<rect x="390.9" y="322.2" transform="matrix(-1 -1.224647e-16 1.224647e-16 -1 821.5098 684.1349)" class="st16" width="39.7" height="39.7"/>
	
		<rect x="390.9" y="282.5" transform="matrix(-1 -1.224647e-16 1.224647e-16 -1 821.5098 604.736)" class="st17" width="39.7" height="39.7"/>
</g>
<g>
	
		<rect x="272.5" y="361.9" transform="matrix(-1 -1.224647e-16 1.224647e-16 -1 584.7547 763.5339)" class="st32" width="39.7" height="39.7"/>
	
		<rect x="272.5" y="282.5" transform="matrix(-1 -1.224647e-16 1.224647e-16 -1 584.7547 604.736)" class="st31" width="39.7" height="39.7"/>
	
		<rect x="272.5" y="322.2" transform="matrix(-1 -1.224647e-16 1.224647e-16 -1 584.7547 684.1349)" class="st17" width="39.7" height="39.7"/>
	
		<rect x="272.5" y="242.8" transform="matrix(-1 -1.224647e-16 1.224647e-16 -1 584.7547 525.337)" class="st18" width="39.7" height="39.7"/>
</g>
<g>
	
		<rect x="430.6" y="361.9" transform="matrix(-1 -1.224647e-16 1.224647e-16 -1 900.9088 763.5339)" class="st32" width="39.7" height="39.7"/>
	
		<rect x="430.6" y="322.2" transform="matrix(-1 -1.224647e-16 1.224647e-16 -1 900.9088 684.1349)" class="st16" width="39.7" height="39.7"/>
	
		<rect x="430.6" y="282.5" transform="matrix(-1 -1.224647e-16 1.224647e-16 -1 900.9088 604.736)" class="st35" width="39.7" height="39.7"/>
	
		<rect x="430.6" y="242.8" transform="matrix(-1 -1.224647e-16 1.224647e-16 -1 900.9088 525.337)" class="st18" width="39.7" height="39.7"/>
</g>
<g>
	
		<rect x="153.4" y="361.9" transform="matrix(-1 -1.224647e-16 1.224647e-16 -1 346.5579 763.5339)" class="st32" width="39.7" height="39.7"/>
	
		<rect x="153.4" y="322.2" transform="matrix(-1 -1.224647e-16 1.224647e-16 -1 346.5579 684.1349)" class="st31" width="39.7" height="39.7"/>
	
		<rect x="153.4" y="282.5" transform="matrix(-1 -1.224647e-16 1.224647e-16 -1 346.5579 604.736)" class="st18" width="39.7" height="39.7"/>
	
		<rect x="153.4" y="242.8" transform="matrix(-1 -1.224647e-16 1.224647e-16 -1 346.5579 525.337)" class="st16" width="39.7" height="39.7"/>
	
		<rect x="153.4" y="203.1" transform="matrix(-1 -1.224647e-16 1.224647e-16 -1 346.5579 445.938)" class="st17" width="39.7" height="39.7"/>
	
		<rect x="153.4" y="163.4" transform="matrix(-1 -1.224647e-16 1.224647e-16 -1 346.5579 366.5391)" class="st40" width="39.7" height="39.7"/>
</g>
<g>
	
		<rect x="232.8" y="361.9" transform="matrix(-1 -1.224647e-16 1.224647e-16 -1 505.3558 763.5339)" class="st32" width="39.7" height="39.7"/>
	
		<rect x="232.8" y="322.2" transform="matrix(-1 -1.224647e-16 1.224647e-16 -1 505.3558 684.1349)" class="st31" width="39.7" height="39.7"/>
	
		<rect x="232.8" y="282.5" transform="matrix(-1 -1.224647e-16 1.224647e-16 -1 505.3558 604.736)" class="st35" width="39.7" height="39.7"/>
	
		<rect x="232.8" y="242.8" transform="matrix(-1 -1.224647e-16 1.224647e-16 -1 505.3558 525.337)" class="st16" width="39.7" height="39.7"/>
	
		<rect x="232.8" y="203.1" transform="matrix(-1 -1.224647e-16 1.224647e-16 -1 505.3558 445.938)" class="st17" width="39.7" height="39.7"/>
	
		<rect x="232.8" y="163.4" transform="matrix(-1 -1.224647e-16 1.224647e-16 -1 505.3558 366.5391)" class="st18" width="39.7" height="39.7"/>
	
		<rect x="232.8" y="123.7" transform="matrix(-1 -1.224647e-16 1.224647e-16 -1 505.3558 287.1401)" class="st34" width="39.7" height="39.7"/>
</g>
<g>
	
		<rect x="470.3" y="242.8" transform="matrix(-1 -1.224647e-16 1.224647e-16 -1 980.3077 525.337)" class="st17" width="39.7" height="39.7"/>
	<g>
		
			<rect x="470.3" y="361.9" transform="matrix(-1 -1.224647e-16 1.224647e-16 -1 980.3077 763.5339)" class="st32" width="39.7" height="39.7"/>
		
			<rect x="470.3" y="282.5" transform="matrix(-1 -1.224647e-16 1.224647e-16 -1 980.3077 604.736)" class="st35" width="39.7" height="39.7"/>
		
			<rect x="470.3" y="322.2" transform="matrix(-1 -1.224647e-16 1.224647e-16 -1 980.3077 684.1349)" class="st16" width="39.7" height="39.7"/>
	</g>
</g>
</svg>
