<svg class="svg-icon" style="width: 1em; height: 1em;vertical-align: middle;fill: currentColor;overflow: hidden;" viewBox="0 0 1024 1024" version="1.1" xmlns="http://www.w3.org/2000/svg"><path d="M512 227.555556m-85.333333 0a85.333333 85.333333 0 1 0 170.666666 0 85.333333 85.333333 0 1 0-170.666666 0Z" fill="" /><path d="M199.111111 312.888889m-85.333333 0a85.333333 85.333333 0 1 0 170.666666 0 85.333333 85.333333 0 1 0-170.666666 0Z" fill="" /><path d="M824.888889 312.888889m-85.333333 0a85.333333 85.333333 0 1 0 170.666666 0 85.333333 85.333333 0 1 0-170.666666 0Z" fill="" /><path d="M199.111111 739.555556a312.888889 142.222222 0 1 0 625.777778 0 312.888889 142.222222 0 1 0-625.777778 0Z" fill="" /><path d="M335.644444 563.2C321.422222 500.622222 264.533333 455.111111 199.111111 455.111111c-79.644444 0-142.222222 62.577778-142.222222 142.222222v142.222223h85.333333c0-71.111111 65.422222-142.222222 193.422222-176.355556zM512 540.444444c54.044444 0 99.555556 5.688889 142.222222 14.222223V512c0-79.644444-62.577778-142.222222-142.222222-142.222222s-142.222222 62.577778-142.222222 142.222222v42.666667c42.666667-8.533333 88.177778-14.222222 142.222222-14.222223zM824.888889 455.111111c-65.422222 0-122.311111 45.511111-136.533333 108.088889C816.355556 597.333333 881.777778 668.444444 881.777778 739.555556h85.333333v-142.222223c0-79.644444-62.577778-142.222222-142.222222-142.222222z" fill="" /></svg>