<?xml version="1.0" encoding="utf-8"?>
<!-- Generator: Adobe Illustrator 27.3.1, SVG Export Plug-In . SVG Version: 6.00 Build 0)  -->
<svg version="1.1" id="katman_1" xmlns="http://www.w3.org/2000/svg" xmlns:xlink="http://www.w3.org/1999/xlink" x="0px" y="0px"
	 viewBox="0 0 618.2 349.8" style="enable-background:new 0 0 618.2 349.8;" xml:space="preserve">
<style type="text/css">
	.st0{fill:#AAD6C5;stroke:#FFFFFF;stroke-miterlimit:10;}
	.st1{fill:#4057A2;stroke:#FFFFFF;stroke-miterlimit:10;}
	.st2{fill:#4B90CD;stroke:#FFFFFF;stroke-miterlimit:10;}
	.st3{fill:#C6E0E5;stroke:#FFFFFF;stroke-miterlimit:10;}
	.st4{fill:#76C8D9;stroke:#FFFFFF;stroke-miterlimit:10;}
	.st5{fill:none;}
	.st6{fill:#6BC1BD;stroke:#FFFFFF;stroke-miterlimit:10;}
	.st7{fill:#80C0BE;stroke:#FFFFFF;stroke-miterlimit:10;}
	.st8{fill:#7DB3DF;stroke:#FFFFFF;stroke-width:1;stroke-miterlimit:10;}
	.st9{fill:#C8D0D0;stroke:#FFFFFF;stroke-miterlimit:10;}
	.st10{fill:#CCDFE5;stroke:#FFFFFF;stroke-miterlimit:10;}
	.st11{fill:#7DB3DF;stroke:#FFFFFF;stroke-miterlimit:10;}
	.st12{fill:#89C6D7;stroke:#FFFFFF;stroke-miterlimit:10;}
	.st13{fill:#45569E;stroke:#FFFFFF;stroke-miterlimit:10;}
	.st14{fill:#5C8FC9;stroke:#FFFFFF;stroke-miterlimit:10;}
	.st15{fill:#B4D6C7;stroke:#FFFFFF;stroke-miterlimit:10;}
	.st16{fill:#F1EA7A;stroke:#FFFFFF;stroke-miterlimit:10;}
	.st17{fill:none;stroke:#010202;stroke-miterlimit:10;}
	.st18{fill:#010202;}
	.st19{fill:#CC4128;}
	.st20{fill:#DD3014;stroke:#FFFFFF;stroke-miterlimit:10;}
	.st21{fill:#EA6038;stroke:#FFFFFF;stroke-miterlimit:10;}
	.st22{fill:#F9B30E;stroke:#FFFFFF;stroke-miterlimit:10;}
	.st23{fill:#223A81;stroke:#FFFFFF;stroke-miterlimit:10;}
	.st24{font-family:'DINAlternate-Bold';}
	.st25{font-size:15px;}
	.st26{fill:#CCFFFE;}
	.st27{font-size:26.0819px;}
	.st28{fill:#C7FFFD;}
	.st29{fill:#070A51;}
	.st30{fill:#F0E97B;stroke:#FFFFFF;stroke-miterlimit:10;}
	.st31{fill:#F3EFB4;stroke:#FFFFFF;stroke-miterlimit:10;}
	.st32{fill:#89261D;stroke:#FFFFFF;stroke-miterlimit:10;}
	.st33{fill:#DB6944;stroke:#FFFFFF;stroke-miterlimit:10;}
	.st34{fill:#8A261D;stroke:#FFFFFF;stroke-miterlimit:10;}
	.st35{fill:#CC4128;stroke:#FFFFFF;stroke-miterlimit:10;}
	.st36{fill:#EFB742;stroke:#FFFFFF;stroke-miterlimit:10;}
	.st37{fill:#F3F0B5;stroke:#FFFFFF;stroke-miterlimit:10;}
	.st38{fill:none;stroke:#000000;stroke-miterlimit:10;}
	.st39{fill:#FFFFFF;stroke:#000000;stroke-miterlimit:10;}
	.st40{fill:#45ACAB;}
	.st41{fill:#F1E966;stroke:#FFFFFF;stroke-miterlimit:10;}
	.st42{fill:#951914;stroke:#FFFFFF;stroke-miterlimit:10;}
	.st43{fill:#E74526;stroke:#FFFFFF;stroke-miterlimit:10;}
	.st44{fill:#F18C56;stroke:#FFFFFF;stroke-miterlimit:10;}
	.st45{fill:#F3EFAD;stroke:#FFFFFF;stroke-miterlimit:10;}
	.st46{fill:#C6D0CF;stroke:#FFFFFF;stroke-miterlimit:10;}
	.st47{fill:#6CB3E3;stroke:#FFFFFF;stroke-miterlimit:10;}
	.st48{fill:#3ABBD4;stroke:#FFFFFF;stroke-miterlimit:10;}
	.st49{fill:#EC6C70;stroke:#FFFFFF;stroke-miterlimit:10;}
	.st50{fill:#1AB2AA;stroke:#FFFFFF;stroke-miterlimit:10;}
	.st51{fill:#EAF5F6;stroke:#FFFFFF;stroke-miterlimit:10;}
	.st52{fill:#DA6944;stroke:#FFFFFF;stroke-miterlimit:10;}
	.st53{fill:#E39161;stroke:#FFFFFF;stroke-miterlimit:10;}
	.st54{fill:#EEB641;stroke:#FFFFFF;stroke-miterlimit:10;}
	.st55{fill:#DC7373;stroke:#FFFFFF;stroke-miterlimit:10;}
	.st56{fill:#DB6944;}
	.st57{fill:#EFB742;}
	.st58{fill:#DC7373;}
	.st59{fill:none;stroke:#FFFFFF;stroke-width:0.5;stroke-miterlimit:10;}
	.st60{fill:#8A261D;}
	.st61{fill:#E39161;}
	.st62{fill:none;stroke:#FFFFFF;stroke-miterlimit:10;}
	.st63{fill:#4B90CD;}
	.st64{fill:#6BC1BD;}
	.st65{fill:#4057A2;}
	.st66{fill:#AAD6C5;}
	.st67{fill:#1D1D1B;}
</style>
<rect x="82.5" y="133.6" transform="matrix(-1 -1.224647e-16 1.224647e-16 -1 637.0601 312.5245)" class="st1" width="472.1" height="45.3"/>
<rect x="82.5" y="178.9" transform="matrix(-1 -1.224647e-16 1.224647e-16 -1 400.9819 403.2098)" class="st2" width="236" height="45.3"/>
<rect x="82.5" y="224.3" transform="matrix(-1 -1.224647e-16 1.224647e-16 -1 243.6174 493.895)" class="st4" width="78.7" height="45.3"/>
<rect x="161.1" y="224.3" transform="matrix(-1 -1.224647e-16 1.224647e-16 -1 400.9183 493.895)" class="st6" width="78.7" height="45.3"/>
<rect x="239.8" y="224.3" transform="matrix(-1 -1.224647e-16 1.224647e-16 -1 558.3461 493.8951)" class="st0" width="78.7" height="45.3"/>
<rect x="318.6" y="178.9" transform="matrix(-1 -1.224647e-16 1.224647e-16 -1 873.1383 403.2098)" class="st23" width="236" height="45.3"/>
<rect x="318.6" y="224.3" transform="matrix(-1 -1.224647e-16 1.224647e-16 -1 715.7739 493.895)" class="st4" width="78.7" height="45.3"/>
<rect x="397.2" y="224.3" transform="matrix(-1 -1.224647e-16 1.224647e-16 -1 873.0748 493.895)" class="st6" width="78.7" height="45.3"/>
<rect x="475.9" y="224.3" transform="matrix(-1 -1.224647e-16 1.224647e-16 -1 1030.5026 493.8951)" class="st0" width="78.7" height="45.3"/>
<g>
	<polygon class="st18" points="570.1,70.9 563.6,77.4 563.6,70.9 	"/>
	<polygon class="st18" points="570.1,70.9 563.6,64.3 563.6,70.9 	"/>
</g>
<text transform="matrix(1 0 0 1 66.7104 89.975)" class="st24 st25">0 ms</text>
<text transform="matrix(1 0 0 1 217.1045 89.7948)" class="st24 st25">100 ms</text>
<text transform="matrix(1 0 0 1 378.3778 89.8852)" class="st24 st25">200 ms</text>
<text transform="matrix(1 0 0 1 521.4626 89.8847)" class="st24 st25">300 ms</text>
<rect x="60.7" y="69.9" class="st18" width="502.8" height="1.8"/>
<text transform="matrix(1 0 0 1 96.721 164.0188)" class="st26 st24 st27">a()</text>
<text transform="matrix(1 0 0 1 97.3752 208.7106)" class="st28 st24 st27">b()</text>
<text transform="matrix(1 0 0 1 97.3752 256.5641)" class="st29 st24 st27">d()</text>
<text transform="matrix(1 0 0 1 173.3278 256.5641)" class="st29 st24 st27">e()</text>
<text transform="matrix(1 0 0 1 249.5629 256.5641)" class="st29 st24 st27">f()</text>
<text transform="matrix(1 0 0 1 332.2921 211.4543)" class="st28 st24 st27">c()</text>
<text transform="matrix(1 0 0 1 332.2921 256.5647)" class="st29 st24 st27">d()</text>
<text transform="matrix(1 0 0 1 409.8786 256.5638)" class="st29 st24 st27">e()</text>
<text transform="matrix(1 0 0 1 486.114 256.5638)" class="st29 st24 st27">f()</text>
</svg>
