<?xml version="1.0" encoding="utf-8"?>
<!-- Generator: Adobe Illustrator 27.3.1, SVG Export Plug-In . SVG Version: 6.00 Build 0)  -->
<svg version="1.1" id="katman_1" xmlns="http://www.w3.org/2000/svg" xmlns:xlink="http://www.w3.org/1999/xlink" x="0px" y="0px"
	 viewBox="0 0 618.2 349.8" style="enable-background:new 0 0 618.2 349.8;" xml:space="preserve">
<style type="text/css">
	.st0{fill:#AAD6C5;stroke:#FFFFFF;stroke-miterlimit:10;}
	.st1{fill:#4057A2;stroke:#FFFFFF;stroke-miterlimit:10;}
	.st2{fill:#4B90CD;stroke:#FFFFFF;stroke-miterlimit:10;}
	.st3{fill:#C6E0E5;stroke:#FFFFFF;stroke-miterlimit:10;}
	.st4{fill:#76C8D9;stroke:#FFFFFF;stroke-miterlimit:10;}
	.st5{fill:none;}
	.st6{fill:#6BC1BD;stroke:#FFFFFF;stroke-miterlimit:10;}
	.st7{fill:#80C0BE;stroke:#FFFFFF;stroke-miterlimit:10;}
	.st8{fill:#7DB3DF;stroke:#FFFFFF;stroke-width:1;stroke-miterlimit:10;}
	.st9{fill:#C8D0D0;stroke:#FFFFFF;stroke-miterlimit:10;}
	.st10{fill:#CCDFE5;stroke:#FFFFFF;stroke-miterlimit:10;}
	.st11{fill:#7DB3DF;stroke:#FFFFFF;stroke-miterlimit:10;}
	.st12{fill:#89C6D7;stroke:#FFFFFF;stroke-miterlimit:10;}
	.st13{fill:#45569E;stroke:#FFFFFF;stroke-miterlimit:10;}
	.st14{fill:#5C8FC9;stroke:#FFFFFF;stroke-miterlimit:10;}
	.st15{fill:#B4D6C7;stroke:#FFFFFF;stroke-miterlimit:10;}
	.st16{fill:#F1EA7A;stroke:#FFFFFF;stroke-miterlimit:10;}
	.st17{fill:none;stroke:#010202;stroke-miterlimit:10;}
	.st18{fill:#010202;}
	.st19{fill:#CC4128;}
	.st20{fill:#DD3014;stroke:#FFFFFF;stroke-miterlimit:10;}
	.st21{fill:#EA6038;stroke:#FFFFFF;stroke-miterlimit:10;}
	.st22{fill:#F9B30E;stroke:#FFFFFF;stroke-miterlimit:10;}
	.st23{fill:#223A81;stroke:#FFFFFF;stroke-miterlimit:10;}
	.st24{fill:#F0E97B;stroke:#FFFFFF;stroke-miterlimit:10;}
	.st25{fill:#F3EFB4;stroke:#FFFFFF;stroke-miterlimit:10;}
	.st26{fill:#89261D;stroke:#FFFFFF;stroke-miterlimit:10;}
	.st27{font-family:'DINAlternate-Bold';}
	.st28{font-size:15px;}
	.st29{fill:#F9B30E;}
	.st30{font-size:26.0819px;}
	.st31{fill:#DD3014;}
	.st32{fill:#DB6944;stroke:#FFFFFF;stroke-miterlimit:10;}
	.st33{fill:#8A261D;stroke:#FFFFFF;stroke-miterlimit:10;}
	.st34{fill:#CC4128;stroke:#FFFFFF;stroke-miterlimit:10;}
	.st35{fill:#EFB742;stroke:#FFFFFF;stroke-miterlimit:10;}
	.st36{fill:#F3F0B5;stroke:#FFFFFF;stroke-miterlimit:10;}
	.st37{fill:none;stroke:#000000;stroke-miterlimit:10;}
	.st38{fill:#FFFFFF;stroke:#000000;stroke-miterlimit:10;}
	.st39{fill:#45ACAB;}
	.st40{fill:#F1E966;stroke:#FFFFFF;stroke-miterlimit:10;}
	.st41{fill:#951914;stroke:#FFFFFF;stroke-miterlimit:10;}
	.st42{fill:#E74526;stroke:#FFFFFF;stroke-miterlimit:10;}
	.st43{fill:#F18C56;stroke:#FFFFFF;stroke-miterlimit:10;}
	.st44{fill:#F3EFAD;stroke:#FFFFFF;stroke-miterlimit:10;}
	.st45{fill:#C6D0CF;stroke:#FFFFFF;stroke-miterlimit:10;}
	.st46{fill:#6CB3E3;stroke:#FFFFFF;stroke-miterlimit:10;}
	.st47{fill:#3ABBD4;stroke:#FFFFFF;stroke-miterlimit:10;}
	.st48{fill:#EC6C70;stroke:#FFFFFF;stroke-miterlimit:10;}
	.st49{fill:#1AB2AA;stroke:#FFFFFF;stroke-miterlimit:10;}
	.st50{fill:#EAF5F6;stroke:#FFFFFF;stroke-miterlimit:10;}
	.st51{fill:#DA6944;stroke:#FFFFFF;stroke-miterlimit:10;}
	.st52{fill:#E39161;stroke:#FFFFFF;stroke-miterlimit:10;}
	.st53{fill:#EEB641;stroke:#FFFFFF;stroke-miterlimit:10;}
	.st54{fill:#DC7373;stroke:#FFFFFF;stroke-miterlimit:10;}
	.st55{fill:#DB6944;}
	.st56{fill:#EFB742;}
	.st57{fill:#DC7373;}
	.st58{fill:none;stroke:#FFFFFF;stroke-width:0.5;stroke-miterlimit:10;}
	.st59{fill:#8A261D;}
	.st60{fill:#E39161;}
	.st61{fill:none;stroke:#FFFFFF;stroke-miterlimit:10;}
	.st62{fill:#4B90CD;}
	.st63{fill:#6BC1BD;}
	.st64{fill:#4057A2;}
	.st65{fill:#AAD6C5;}
	.st66{fill:#1D1D1B;}
</style>
<rect x="74.9" y="180.1" transform="matrix(-1 -1.224647e-16 1.224647e-16 -1 621.9917 405.2943)" class="st20" width="472.1" height="45.1"/>
<rect x="74.9" y="135" transform="matrix(-1 -1.224647e-16 1.224647e-16 -1 385.9135 315.1567)" class="st21" width="236" height="45.1"/>
<rect x="74.9" y="90" transform="matrix(-1 -1.224647e-16 1.224647e-16 -1 228.5491 225.0193)" class="st22" width="78.7" height="45.1"/>
<rect x="153.6" y="90" transform="matrix(-1 -1.224647e-16 1.224647e-16 -1 385.85 225.0193)" class="st24" width="78.7" height="45.1"/>
<rect x="232.3" y="90" transform="matrix(-1 -1.224647e-16 1.224647e-16 -1 543.2777 225.0192)" class="st25" width="78.7" height="45.1"/>
<rect x="311" y="135" transform="matrix(-1 -1.224647e-16 1.224647e-16 -1 858.0699 315.1567)" class="st26" width="236" height="45.1"/>
<rect x="311" y="90" transform="matrix(-1 -1.224647e-16 1.224647e-16 -1 700.7055 225.0193)" class="st22" width="78.7" height="45.1"/>
<rect x="389.7" y="90" transform="matrix(-1 -1.224647e-16 1.224647e-16 -1 858.0064 225.0193)" class="st24" width="78.7" height="45.1"/>
<rect x="468.4" y="90" transform="matrix(-1 -1.224647e-16 1.224647e-16 -1 1015.4341 225.0192)" class="st25" width="78.7" height="45.1"/>
<g>
	<polygon class="st18" points="565.7,260.4 559.2,267 559.2,260.4 	"/>
	<polygon class="st18" points="565.7,260.4 559.2,253.9 559.2,260.4 	"/>
</g>
<text transform="matrix(1 0 0 1 62.2857 279.5617)" class="st27 st28">0 ms</text>
<text transform="matrix(1 0 0 1 212.6798 279.3815)" class="st27 st28">100 ms</text>
<text transform="matrix(1 0 0 1 373.953 279.4718)" class="st27 st28">200 ms</text>
<text transform="matrix(1 0 0 1 517.0378 279.4713)" class="st27 st28">300 ms</text>
<rect x="56.3" y="259.5" class="st18" width="502.8" height="1.8"/>
<text transform="matrix(1 0 0 1 85.1142 213.1483)" class="st29 st27 st30">a()</text>
<text transform="matrix(1 0 0 1 85.7688 168.2544)" class="st29 st27 st30">b()</text>
<text transform="matrix(1 0 0 1 85.7688 124.5283)" class="st31 st27 st30">d()</text>
<text transform="matrix(1 0 0 1 161.7214 124.5283)" class="st31 st27 st30">e()</text>
<text transform="matrix(1 0 0 1 237.9565 124.5283)" class="st31 st27 st30">f()</text>
<text transform="matrix(1 0 0 1 320.6856 170.9981)" class="st29 st27 st30">c()</text>
<text transform="matrix(1 0 0 1 320.6856 124.5289)" class="st31 st27 st30">d()</text>
<text transform="matrix(1 0 0 1 398.2722 124.5281)" class="st31 st27 st30">e()</text>
<text transform="matrix(1 0 0 1 474.5074 124.5281)" class="st31 st27 st30">f()</text>
</svg>
