<?xml version="1.0" encoding="utf-8"?>
<!-- Generator: Adobe Illustrator 27.3.1, SVG Export Plug-In . SVG Version: 6.00 Build 0)  -->
<svg version="1.0" id="katman_1" xmlns="http://www.w3.org/2000/svg" xmlns:xlink="http://www.w3.org/1999/xlink" x="0px" y="0px"
	 viewBox="0 0 1000 661.71" style="enable-background:new 0 0 1000 661.71;" xml:space="preserve">
<style type="text/css">
	.st0{fill:#DB6944;stroke:#FFFFFF;stroke-miterlimit:10;}
	.st1{fill:#8A261D;stroke:#FFFFFF;stroke-miterlimit:10;}
	.st2{fill:#CC4128;stroke:#FFFFFF;stroke-miterlimit:10;}
	.st3{fill:#EFB742;stroke:#FFFFFF;stroke-miterlimit:10;}
	.st4{fill:#F3F0B5;stroke:#FFFFFF;stroke-miterlimit:10;}
	.st5{fill:#F1EA7A;stroke:#FFFFFF;stroke-miterlimit:10;}
	.st6{fill:#E49261;stroke:#FFFFFF;stroke-miterlimit:10;}
	.st7{fill:#DD7473;stroke:#FFFFFF;stroke-miterlimit:10;}
	.st8{fill:#45569E;stroke:#FFFFFF;stroke-miterlimit:10;}
	.st9{fill:#5C8FC9;stroke:#FFFFFF;stroke-miterlimit:10;}
	.st10{fill:#C8D0D0;stroke:#FFFFFF;stroke-miterlimit:10;}
	.st11{fill:#89C6D7;stroke:#FFFFFF;stroke-miterlimit:10;}
	.st12{fill:#CCDFE5;stroke:#FFFFFF;stroke-miterlimit:10;}
	.st13{fill:#B4D6C7;stroke:#FFFFFF;stroke-miterlimit:10;}
	.st14{fill:#273A7E;stroke:#FFFFFF;stroke-miterlimit:10;}
	.st15{fill:#7DB3DF;stroke:#FFFFFF;stroke-miterlimit:10;}
	.st16{fill:#63B9D2;stroke:#FFFFFF;stroke-miterlimit:10;}
	.st17{fill:#80C0BE;stroke:#FFFFFF;stroke-miterlimit:10;}
	.st18{fill:#D65335;stroke:#FFFFFF;stroke-miterlimit:10;}
	.st19{fill:none;stroke:#010202;stroke-miterlimit:10;}
	.st20{fill:#010202;}
	.st21{fill:#CC4128;stroke:#010202;stroke-miterlimit:10;}
	.st22{fill:#DB6944;stroke:#010202;stroke-miterlimit:10;}
	.st23{fill:#FFFFFF;stroke:#010202;stroke-miterlimit:10;}
	.st24{fill:#45ACAB;}
	.st25{fill:#EFB742;stroke:#010202;stroke-miterlimit:10;}
	.st26{fill:#F3F0B5;stroke:#010202;stroke-miterlimit:10;}
	.st27{fill:#F1EA7A;stroke:#030303;stroke-miterlimit:10;}
	.st28{font-family:'DINAlternate-Bold';}
	.st29{font-size:42.0613px;}
</style>
<rect x="315.47" y="259.22" transform="matrix(-1 4.055744e-12 -4.055744e-12 -1 1015.7501 535.7485)" class="st17" width="384.81" height="17.3"/>
<rect x="317.89" y="276.62" transform="matrix(-1 -2.018130e-03 2.018130e-03 -1 1013.0958 571.5565)" class="st15" width="377.89" height="17.3"/>
<rect x="315.47" y="224.44" transform="matrix(-1 2.977496e-12 -2.977496e-12 -1 1152.6549 466.1866)" class="st10" width="521.71" height="17.3"/>
<rect x="315.47" y="241.83" transform="matrix(-1 3.005473e-12 -3.005473e-12 -1 1150.2308 500.9673)" class="st12" width="519.29" height="17.3"/>
<rect x="200.91" y="189.66" transform="matrix(-1 2.396183e-12 -2.396183e-12 -1 1050.0927 396.625)" class="st15" width="648.28" height="17.3"/>
<rect x="315.47" y="207.05" transform="matrix(-1 2.972167e-12 -2.972167e-12 -1 1153.5557 431.4058)" class="st11" width="522.62" height="17.3"/>
<rect x="200.91" y="154.88" transform="matrix(-1 2.330458e-12 -2.330458e-12 -1 1069.11 327.0634)" class="st8" width="667.3" height="17.3"/>
<rect x="200.91" y="172.27" transform="matrix(-1 2.330458e-12 -2.330458e-12 -1 1069.11 361.8442)" class="st9" width="667.3" height="17.3"/>
<rect x="351.73" y="397.95" transform="matrix(-1 1.551813e-11 -1.551813e-11 -1 804.2665 813.1909)" class="st15" width="100.81" height="17.3"/>
<rect x="368.92" y="415.5" transform="matrix(-1 1.976096e-11 -1.976096e-11 -1 816.9988 848.3014)" class="st9" width="79.16" height="17.3"/>
<rect x="341.65" y="363.33" transform="matrix(-1 1.291133e-11 -1.291133e-11 -1 803.6136 743.959)" class="st15" width="120.31" height="17.3"/>
<rect x="341.65" y="380.72" transform="matrix(-1 1.394339e-11 -1.394339e-11 -1 794.7076 778.7398)" class="st8" width="111.41" height="17.3"/>
<rect x="464.43" y="397.78" transform="matrix(-1 2.736732e-11 -2.736732e-11 -1 985.6138 812.8611)" class="st15" width="56.76" height="17.3"/>
<rect x="495.77" y="415.17" transform="matrix(-1 6.917654e-11 -6.917654e-11 -1 1013.9978 847.642)" class="st15" width="22.46" height="17.3"/>
<rect x="461.39" y="363" transform="matrix(-1 2.591559e-11 -2.591559e-11 -1 982.5741 743.2996)" class="st13" width="59.8" height="17.3"/>
<rect x="461.39" y="380.39" transform="matrix(-1 2.597643e-11 -2.597643e-11 -1 982.5741 778.0804)" class="st9" width="59.8" height="17.3"/>
<rect x="520.43" y="397.78" transform="matrix(-1 2.283628e-11 -2.283628e-11 -1 1109.2028 812.8611)" class="st15" width="68.34" height="17.3"/>
<rect x="529.81" y="415.17" transform="matrix(-1 2.659904e-11 -2.659904e-11 -1 1118.1484 847.642)" class="st8" width="58.54" height="17.3"/>
<rect x="520.43" y="363" transform="matrix(-1 2.079924e-11 -2.079924e-11 -1 1115.5465 743.2996)" class="st15" width="74.69" height="17.3"/>
<rect x="520.43" y="380.39" transform="matrix(-1 2.147603e-11 -2.147603e-11 -1 1113.1924 778.0804)" class="st8" width="72.33" height="17.3"/>
<rect x="546.7" y="467.59" transform="matrix(-1 8.196498e-11 -8.196498e-11 -1 1112.3517 952.4698)" class="st8" width="18.95" height="17.3"/>
<rect x="546.7" y="485.39" transform="matrix(-1 8.619137e-11 -8.619137e-11 -1 1111.3802 988.0851)" class="st17" width="17.98" height="17.3"/>
<rect x="535.59" y="432.8" transform="matrix(-1 4.790201e-11 -4.790201e-11 -1 1103.8344 882.9077)" class="st15" width="32.66" height="17.3"/>
<rect x="541.14" y="450.19" transform="matrix(-1 6.061183e-11 -6.061183e-11 -1 1107.9775 917.6887)" class="st9" width="25.69" height="17.3"/>
<rect x="205.73" y="241.56" transform="matrix(-1 1.190380e-10 -1.190380e-10 -1 424.5119 500.4197)" class="st9" width="13.05" height="17.3"/>
<rect x="208.77" y="258.84" transform="matrix(-1 1.585215e-10 -1.585215e-10 -1 427.3484 534.9741)" class="st13" width="9.8" height="17.3"/>
<rect x="219.01" y="224.07" transform="matrix(-1 2.380761e-10 -2.380761e-10 -1 444.5429 465.4482)" class="st11" width="6.52" height="17.3"/>
<rect x="219.01" y="241.88" transform="matrix(-1 2.521138e-10 -2.521138e-10 -1 444.2085 501.0636)" class="st13" width="6.19" height="17.3"/>
<rect x="201.04" y="207.05" transform="matrix(-1 4.756805e-11 -4.756805e-11 -1 434.7389 431.4058)" class="st13" width="32.66" height="17.3"/>
<rect x="200.98" y="224.28" transform="matrix(-1 8.843802e-11 -8.843802e-11 -1 419.652 465.8654)" class="st12" width="17.69" height="17.3"/>
<rect x="577.07" y="467.26" transform="matrix(-1 2.963633e-10 -2.963633e-10 -1 1159.3777 951.8099)" class="st15" width="5.24" height="17.3"/>
<rect x="580.36" y="484.65" transform="matrix(-1 7.946265e-10 -7.946265e-10 -1 1162.6689 986.5917)" class="st15" width="1.95" height="17.3"/>
<rect x="568.11" y="432.47" transform="matrix(-1 1.098995e-10 -1.098995e-10 -1 1150.4181 882.2483)" class="st13" width="14.2" height="17.3"/>
<rect x="574.65" y="449.86" transform="matrix(-1 2.032533e-10 -2.032533e-10 -1 1156.9586 917.0291)" class="st15" width="7.66" height="17.3"/>
<rect x="582.13" y="467.26" transform="matrix(-1 6.594444e-10 -6.594444e-10 -1 1166.6151 951.811)" class="st15" width="2.36" height="17.3"/>
<rect x="582.13" y="484.65" transform="matrix(-1 6.578998e-10 -6.578998e-10 -1 1166.6151 986.5917)" class="st15" width="2.36" height="17.3"/>
<rect x="582.13" y="432.48" transform="matrix(-1 3.297219e-10 -3.297219e-10 -1 1168.9708 882.2494)" class="st15" width="4.71" height="17.3"/>
<rect x="582.13" y="449.87" transform="matrix(-1 6.594444e-10 -6.594444e-10 -1 1166.6151 917.0302)" class="st15" width="2.36" height="17.3"/>
<rect x="603.14" y="398.11" transform="matrix(-1 4.929867e-11 -4.929867e-11 -1 1237.8579 813.5218)" class="st11" width="31.58" height="17.3"/>
<rect x="610.74" y="414.82" transform="matrix(-1 6.958555e-11 -6.958555e-11 -1 1243.803 846.9404)" class="st15" width="22.32" height="17.3"/>
<rect x="598.07" y="362.65" transform="matrix(-1 3.800059e-11 -3.800059e-11 -1 1237.3109 742.598)" class="st15" width="41.17" height="17.3"/>
<rect x="602.43" y="380.72" transform="matrix(-1 4.525479e-11 -4.525479e-11 -1 1239.257 778.7403)" class="st15" width="34.41" height="17.3"/>
<rect x="641.6" y="397.78" transform="matrix(-1 7.702078e-10 -7.702078e-10 -1 1285.209 812.863)" class="st15" width="2.02" height="17.3"/>
<rect x="642.09" y="415.17" transform="matrix(-1 1.022526e-09 -1.022526e-09 -1 1285.7067 847.6438)" class="st15" width="1.52" height="17.3"/>
<rect x="639.24" y="363" transform="matrix(-1 3.551034e-10 -3.551034e-10 -1 1282.8513 743.3014)" class="st15" width="4.37" height="17.3"/>
<rect x="640.57" y="380.39" transform="matrix(-1 5.112629e-10 -5.112629e-10 -1 1284.1875 778.0822)" class="st15" width="3.04" height="17.3"/>
<rect x="643.51" y="397.78" transform="matrix(-1 1.925516e-10 -1.925516e-10 -1 1295.0891 812.863)" class="st11" width="8.07" height="17.3"/>
<rect x="646.02" y="415.17" transform="matrix(-1 2.787072e-10 -2.787072e-10 -1 1297.5961 847.6438)" class="st15" width="5.56" height="17.3"/>
<rect x="643.51" y="363" transform="matrix(-1 1.533825e-10 -1.533825e-10 -1 1297.1493 743.3014)" class="st15" width="10.13" height="17.3"/>
<rect x="643.51" y="380.39" transform="matrix(-1 1.659365e-10 -1.659365e-10 -1 1296.3831 778.0822)" class="st15" width="9.36" height="17.3"/>
<rect x="621.9" y="467.32" transform="matrix(-1 3.072461e-10 -3.072461e-10 -1 1248.8521 951.9426)" class="st15" width="5.06" height="17.3"/>
<rect x="621.9" y="484.71" transform="matrix(-1 3.072461e-10 -3.072461e-10 -1 1248.8521 986.7234)" class="st15" width="5.06" height="17.3"/>
<rect x="620.54" y="432.54" transform="matrix(-1 1.536237e-10 -1.536237e-10 -1 1251.1849 882.3799)" class="st15" width="10.11" height="17.3"/>
<rect x="621.22" y="449.93" transform="matrix(-1 1.701846e-10 -1.701846e-10 -1 1251.5625 917.1611)" class="st13" width="9.13" height="17.3"/>
<rect x="647.67" y="468" transform="matrix(-1 8.089399e-10 -8.089399e-10 -1 1297.2534 953.305)" class="st15" width="1.92" height="17.3"/>
<rect x="647.67" y="485.39" transform="matrix(-1 8.146367e-10 -8.146367e-10 -1 1297.2534 988.0858)" class="st15" width="1.92" height="17.3"/>
<rect x="647.67" y="433.22" transform="matrix(-1 8.108388e-10 -8.108388e-10 -1 1297.2534 883.7434)" class="st15" width="1.92" height="17.3"/>
<rect x="647.67" y="450.61" transform="matrix(-1 8.108388e-10 -8.108388e-10 -1 1297.2534 918.5242)" class="st15" width="1.92" height="17.3"/>
<rect x="649.56" y="468" transform="matrix(-1 8.089399e-10 -8.089399e-10 -1 1301.0366 953.305)" class="st15" width="1.92" height="17.3"/>
<rect x="649.56" y="485.39" transform="matrix(-1 8.146367e-10 -8.146367e-10 -1 1301.0366 988.0858)" class="st15" width="1.92" height="17.3"/>
<rect x="649.56" y="433.22" transform="matrix(-1 8.108388e-10 -8.108388e-10 -1 1301.0366 883.7434)" class="st15" width="1.92" height="17.3"/>
<rect x="649.56" y="450.61" transform="matrix(-1 8.108388e-10 -8.108388e-10 -1 1301.0366 918.5242)" class="st15" width="1.92" height="17.3"/>
<rect x="263.59" y="243.37" transform="matrix(-1 4.918365e-11 -4.918365e-11 -1 558.7617 504.0324)" class="st9" width="31.58" height="17.3"/>
<rect x="271.19" y="260.08" transform="matrix(-1 6.958555e-11 -6.958555e-11 -1 564.7067 537.451)" class="st12" width="22.32" height="17.3"/>
<rect x="258.52" y="207.9" transform="matrix(-1 3.773547e-11 -3.773547e-11 -1 558.2147 433.1086)" class="st13" width="41.17" height="17.3"/>
<rect x="262.88" y="225.98" transform="matrix(-1 4.514910e-11 -4.514910e-11 -1 560.1607 469.2509)" class="st12" width="34.41" height="17.3"/>
<rect x="302.05" y="243.04" transform="matrix(-1 7.702078e-10 -7.702078e-10 -1 606.1127 503.3736)" class="st13" width="2.02" height="17.3"/>
<rect x="302.55" y="260.43" transform="matrix(-1 1.022526e-09 -1.022526e-09 -1 606.6104 538.1544)" class="st13" width="1.52" height="17.3"/>
<rect x="299.69" y="208.26" transform="matrix(-1 3.551034e-10 -3.551034e-10 -1 603.7551 433.812)" class="st13" width="4.37" height="17.3"/>
<rect x="301.03" y="225.65" transform="matrix(-1 5.106643e-10 -5.106643e-10 -1 605.0912 468.5928)" class="st13" width="3.04" height="17.3"/>
<rect x="303.96" y="243.04" transform="matrix(-1 1.925516e-10 -1.925516e-10 -1 615.9929 503.3736)" class="st13" width="8.07" height="17.3"/>
<rect x="306.47" y="260.43" transform="matrix(-1 2.793613e-10 -2.793613e-10 -1 618.4998 538.1544)" class="st13" width="5.56" height="17.3"/>
<rect x="303.96" y="208.26" transform="matrix(-1 1.533825e-10 -1.533825e-10 -1 618.053 433.812)" class="st11" width="10.13" height="17.3"/>
<rect x="303.96" y="225.65" transform="matrix(-1 1.659365e-10 -1.659365e-10 -1 617.2868 468.5928)" class="st13" width="9.36" height="17.3"/>
<rect x="282.35" y="312.58" transform="matrix(-1 3.072461e-10 -3.072461e-10 -1 569.7558 642.4532)" class="st11" width="5.06" height="17.3"/>
<rect x="282.35" y="329.97" transform="matrix(-1 3.072461e-10 -3.072461e-10 -1 569.7558 677.234)" class="st11" width="5.06" height="17.3"/>
<rect x="280.99" y="277.8" transform="matrix(-1 1.536237e-10 -1.536237e-10 -1 572.0887 572.8905)" class="st13" width="10.11" height="17.3"/>
<rect x="281.67" y="295.19" transform="matrix(-1 1.701846e-10 -1.701846e-10 -1 572.4662 607.6718)" class="st11" width="9.13" height="17.3"/>
<rect x="308.12" y="313.26" transform="matrix(-1 8.108388e-10 -8.108388e-10 -1 618.1572 643.8156)" class="st13" width="1.92" height="17.3"/>
<rect x="308.12" y="330.65" transform="matrix(-1 8.165356e-10 -8.165356e-10 -1 618.1572 678.5964)" class="st13" width="1.92" height="17.3"/>
<rect x="308.12" y="278.48" transform="matrix(-1 8.108388e-10 -8.108388e-10 -1 618.1572 574.254)" class="st13" width="1.92" height="17.3"/>
<rect x="308.12" y="295.87" transform="matrix(-1 8.127378e-10 -8.127378e-10 -1 618.1572 609.0349)" class="st13" width="1.92" height="17.3"/>
<rect x="310.01" y="313.26" transform="matrix(-1 8.108388e-10 -8.108388e-10 -1 621.9403 643.8156)" class="st13" width="1.92" height="17.3"/>
<rect x="320.12" y="329.17" transform="matrix(-1 8.089399e-10 -8.089399e-10 -1 642.165 675.6459)" class="st5" width="1.92" height="17.3"/>
<rect x="310.01" y="278.48" transform="matrix(-1 8.108388e-10 -8.108388e-10 -1 621.9403 574.254)" class="st13" width="1.92" height="17.3"/>
<rect x="310.01" y="295.87" transform="matrix(-1 8.127378e-10 -8.127378e-10 -1 621.9403 609.0349)" class="st13" width="1.92" height="17.3"/>
<rect x="407.2" y="537.23" transform="matrix(-1 4.758108e-10 -4.758108e-10 -1 817.6785 1091.767)" class="st15" width="3.27" height="17.3"/>
<rect x="401.08" y="502.45" transform="matrix(-1 1.652615e-10 -1.652615e-10 -1 811.5512 1022.2054)" class="st15" width="9.4" height="17.3"/>
<rect x="404.88" y="519.84" transform="matrix(-1 2.798023e-10 -2.798023e-10 -1 815.3601 1056.9862)" class="st13" width="5.59" height="17.3"/>
<rect x="410.43" y="502.45" transform="matrix(-1 4.735873e-10 -4.735873e-10 -1 824.1405 1022.2054)" class="st9" width="3.27" height="17.3"/>
<rect x="410.43" y="519.84" transform="matrix(-1 4.780339e-10 -4.780339e-10 -1 824.1405 1056.9862)" class="st15" width="3.27" height="17.3"/>
<rect x="416.55" y="467.65" transform="matrix(-1 9.532467e-10 -9.532467e-10 -1 834.7299 952.6047)" class="st15" width="1.63" height="17.3"/>
<rect x="416.55" y="485.04" transform="matrix(-1 9.554845e-10 -9.554845e-10 -1 834.7299 987.3855)" class="st15" width="1.63" height="17.3"/>
<rect x="416.55" y="432.87" transform="matrix(-1 9.577222e-10 -9.577222e-10 -1 834.7299 883.0431)" class="st15" width="1.63" height="17.3"/>
<rect x="416.55" y="450.26" transform="matrix(-1 9.554845e-10 -9.554845e-10 -1 834.7299 917.8239)" class="st15" width="1.63" height="17.3"/>
<rect x="418.16" y="467.65" transform="matrix(-1 9.532467e-10 -9.532467e-10 -1 837.9403 952.6047)" class="st15" width="1.63" height="17.3"/>
<rect x="418.16" y="485.04" transform="matrix(-1 9.554845e-10 -9.554845e-10 -1 837.9403 987.3855)" class="st15" width="1.63" height="17.3"/>
<rect x="418.16" y="432.87" transform="matrix(-1 9.577222e-10 -9.577222e-10 -1 837.9403 883.0431)" class="st15" width="1.63" height="17.3"/>
<rect x="418.16" y="450.26" transform="matrix(-1 9.554845e-10 -9.554845e-10 -1 837.9403 917.8239)" class="st15" width="1.63" height="17.3"/>
<rect x="420.14" y="467.65" transform="matrix(-1 9.532467e-10 -9.532467e-10 -1 841.8998 952.6039)" class="st15" width="1.63" height="17.3"/>
<rect x="420.14" y="485.04" transform="matrix(-1 9.621978e-10 -9.621978e-10 -1 841.8998 987.3848)" class="st15" width="1.63" height="17.3"/>
<rect x="420.14" y="432.87" transform="matrix(-1 9.554845e-10 -9.554845e-10 -1 841.8998 883.0424)" class="st15" width="1.63" height="17.3"/>
<rect x="420.14" y="450.26" transform="matrix(-1 9.554845e-10 -9.554845e-10 -1 841.8998 917.8231)" class="st15" width="1.63" height="17.3"/>
<rect x="421.74" y="432.87" transform="matrix(-1 3.757518e-10 -3.757518e-10 -1 847.6186 883.0424)" class="st15" width="4.13" height="17.3"/>
<rect x="421.74" y="450.26" transform="matrix(-1 5.885602e-10 -5.885602e-10 -1 846.1238 917.8232)" class="st15" width="2.64" height="17.3"/>
<rect x="579.91" y="519.63" transform="matrix(-1 9.554845e-10 -9.554845e-10 -1 1161.4523 1056.558)" class="st15" width="1.63" height="17.3"/>
<rect x="579.11" y="536.91" transform="matrix(-1 9.577222e-10 -9.577222e-10 -1 1159.847 1091.1207)" class="st15" width="1.63" height="17.3"/>
<rect x="578.8" y="502.44" transform="matrix(-1 9.554845e-10 -9.554845e-10 -1 1159.2218 1022.1819)" class="st15" width="1.63" height="17.3"/>
<rect x="578.8" y="484.65" transform="matrix(-1 9.532467e-10 -9.532467e-10 -1 1159.2218 986.5917)" class="st15" width="1.63" height="17.3"/>
<rect x="578.63" y="519.63" transform="matrix(-1 9.554845e-10 -9.554845e-10 -1 1158.8951 1056.558)" class="st15" width="1.63" height="17.3"/>
<rect x="581.52" y="519.63" transform="matrix(-1 9.554845e-10 -9.554845e-10 -1 1164.6627 1056.558)" class="st15" width="1.63" height="17.3"/>
<rect x="580.72" y="536.91" transform="matrix(-1 9.577222e-10 -9.577222e-10 -1 1163.0575 1091.1207)" class="st15" width="1.63" height="17.3"/>
<rect x="580.4" y="502.44" transform="matrix(-1 9.554845e-10 -9.554845e-10 -1 1162.4323 1022.1819)" class="st15" width="1.63" height="17.3"/>
<rect x="582.17" y="502.14" transform="matrix(-1 9.554845e-10 -9.554845e-10 -1 1165.9694 1021.5749)" class="st15" width="1.63" height="17.3"/>
<rect x="393.04" y="467.67" transform="matrix(-1 6.559585e-11 -6.559585e-11 -1 809.7692 952.6438)" class="st15" width="23.68" height="17.3"/>
<rect x="400.6" y="485.06" transform="matrix(-1 9.630773e-11 -9.630773e-11 -1 817.3211 987.4246)" class="st13" width="16.13" height="17.3"/>
<rect x="332.13" y="432.89" transform="matrix(-1 4.746988e-10 -4.746988e-10 -1 667.5276 883.0822)" class="st15" width="3.27" height="17.3"/>
<rect x="332.13" y="450.28" transform="matrix(-1 4.746988e-10 -4.746988e-10 -1 667.5276 917.863)" class="st15" width="3.27" height="17.3"/>
<rect x="330.62" y="398.11" transform="matrix(-1 3.243826e-10 -3.243826e-10 -1 666.0303 813.5206)" class="st15" width="4.79" height="17.3"/>
<rect x="330.62" y="415.5" transform="matrix(-1 3.266617e-10 -3.266617e-10 -1 666.0303 848.3014)" class="st12" width="4.79" height="17.3"/>
<rect x="335.36" y="432.89" transform="matrix(-1 4.746988e-10 -4.746988e-10 -1 673.9896 883.0822)" class="st15" width="3.27" height="17.3"/>
<rect x="335.35" y="398.11" transform="matrix(-1 3.243826e-10 -3.243826e-10 -1 675.4868 813.5206)" class="st15" width="4.79" height="17.3"/>
<rect x="335.35" y="415.5" transform="matrix(-1 3.266617e-10 -3.266617e-10 -1 675.4868 848.3014)" class="st15" width="4.79" height="17.3"/>
<rect x="329.11" y="363.33" transform="matrix(-1 1.238635e-10 -1.238635e-10 -1 670.7585 743.959)" class="st9" width="12.54" height="17.3"/>
<rect x="329.11" y="380.72" transform="matrix(-1 1.238635e-10 -1.238635e-10 -1 670.7585 778.7398)" class="st12" width="12.54" height="17.3"/>
<rect x="248.32" y="259.74" transform="matrix(-1 4.735873e-10 -4.735873e-10 -1 499.9069 536.7834)" class="st13" width="3.27" height="17.3"/>
<rect x="248.32" y="277.13" transform="matrix(-1 4.735873e-10 -4.735873e-10 -1 499.9069 571.5642)" class="st13" width="3.27" height="17.3"/>
<rect x="246.81" y="224.96" transform="matrix(-1 3.247623e-10 -3.247623e-10 -1 498.4096 467.2218)" class="st15" width="4.79" height="17.3"/>
<rect x="246.81" y="242.35" transform="matrix(-1 3.266617e-10 -3.266617e-10 -1 498.4096 502.0026)" class="st15" width="4.79" height="17.3"/>
<rect x="251.55" y="259.74" transform="matrix(-1 4.735873e-10 -4.735873e-10 -1 506.3688 536.7834)" class="st13" width="3.27" height="17.3"/>
<rect x="251.54" y="224.96" transform="matrix(-1 3.247623e-10 -3.247623e-10 -1 507.8661 467.2218)" class="st13" width="4.79" height="17.3"/>
<rect x="251.54" y="242.35" transform="matrix(-1 3.266617e-10 -3.266617e-10 -1 507.8661 502.0026)" class="st13" width="4.79" height="17.3"/>
<rect x="245.3" y="207.57" transform="matrix(-1 1.240087e-10 -1.240087e-10 -1 503.1378 432.441)" class="st9" width="12.54" height="17.3"/>
<rect x="369.36" y="432.89" transform="matrix(-1 3.295130e-11 -3.295130e-11 -1 786.0876 883.0822)" class="st17" width="47.36" height="17.3"/>
<rect x="393.04" y="450.28" transform="matrix(-1 6.590316e-11 -6.590316e-11 -1 809.7692 917.863)" class="st8" width="23.68" height="17.3"/>
<rect x="437.29" y="468.35" transform="matrix(-1 4.746988e-10 -4.746988e-10 -1 877.8445 954.0067)" class="st15" width="3.27" height="17.3"/>
<rect x="437.29" y="485.74" transform="matrix(-1 4.746988e-10 -4.746988e-10 -1 877.8445 988.7874)" class="st15" width="3.27" height="17.3"/>
<rect x="437.29" y="433.57" transform="matrix(-1 4.769224e-10 -4.769224e-10 -1 877.8445 884.4451)" class="st15" width="3.27" height="17.3"/>
<rect x="437.29" y="450.96" transform="matrix(-1 4.746988e-10 -4.746988e-10 -1 877.8445 919.2258)" class="st15" width="3.27" height="17.3"/>
<rect x="440.52" y="468.35" transform="matrix(-1 4.746988e-10 -4.746988e-10 -1 884.3065 954.0067)" class="st15" width="3.27" height="17.3"/>
<rect x="440.52" y="485.74" transform="matrix(-1 4.746988e-10 -4.746988e-10 -1 884.3065 988.7874)" class="st15" width="3.27" height="17.3"/>
<rect x="440.52" y="433.57" transform="matrix(-1 4.769224e-10 -4.769224e-10 -1 884.3065 884.4451)" class="st15" width="3.27" height="17.3"/>
<rect x="440.52" y="450.96" transform="matrix(-1 4.746988e-10 -4.746988e-10 -1 884.3065 919.2258)" class="st15" width="3.27" height="17.3"/>
<rect x="453.97" y="398.05" transform="matrix(-1 9.647753e-10 -9.647753e-10 -1 909.5509 813.4082)" class="st15" width="1.61" height="17.3"/>
<rect x="457.61" y="398.05" transform="matrix(-1 1.276692e-09 -1.276692e-09 -1 916.4428 813.4082)" class="st15" width="1.22" height="17.3"/>
<rect x="453.97" y="380.66" transform="matrix(-1 6.342792e-10 -6.342792e-10 -1 910.3899 778.6271)" class="st15" width="2.45" height="17.3"/>
<rect x="455.78" y="398.05" transform="matrix(-1 8.494728e-10 -8.494728e-10 -1 913.3931 813.4082)" class="st15" width="1.83" height="17.3"/>
<rect x="455.72" y="415.35" transform="matrix(-1 1.276692e-09 -1.276692e-09 -1 912.6478 848.0067)" class="st15" width="1.22" height="17.3"/>
<rect x="456.39" y="380.66" transform="matrix(-1 6.342792e-10 -6.342792e-10 -1 915.2261 778.6271)" class="st15" width="2.45" height="17.3"/>
<rect x="689.43" y="294.39" transform="matrix(-1 4.331057e-11 -4.331057e-11 -1 1414.9869 606.0848)" class="st12" width="36.12" height="17.3"/>
<rect x="699.4" y="311.78" transform="matrix(-1 6.676514e-11 -6.676514e-11 -1 1422.1827 640.8657)" class="st8" width="23.38" height="17.3"/>
<rect x="684.13" y="259.61" transform="matrix(-1 3.759070e-11 -3.759070e-11 -1 1409.6848 536.5233)" class="st8" width="41.42" height="17.3"/>
<rect x="688.18" y="277" transform="matrix(-1 4.156574e-11 -4.156574e-11 -1 1413.7333 571.3041)" class="st12" width="37.37" height="17.3"/>
<rect x="726.67" y="294.06" transform="matrix(-1 5.128907e-11 -5.128907e-11 -1 1483.5582 605.4249)" class="st15" width="30.22" height="17.3"/>
<rect x="728.67" y="311.45" transform="matrix(-1 7.047062e-11 -7.047062e-11 -1 1479.382 640.2057)" class="st12" width="22.04" height="17.3"/>
<rect x="725.23" y="259.28" transform="matrix(-1 4.609057e-11 -4.609057e-11 -1 1484.1588 535.8633)" class="st9" width="33.7" height="17.3"/>
<rect x="725.55" y="276.67" transform="matrix(-1 4.675759e-11 -4.675759e-11 -1 1484.4841 570.6441)" class="st15" width="33.38" height="17.3"/>
<rect x="758.5" y="294.06" transform="matrix(-1 4.910549e-11 -4.910549e-11 -1 1548.6432 605.4249)" class="st15" width="31.63" height="17.3"/>
<rect x="758.5" y="311.45" transform="matrix(-1 5.306055e-11 -5.306055e-11 -1 1546.2853 640.2057)" class="st12" width="29.28" height="17.3"/>
<rect x="758.5" y="259.28" transform="matrix(-1 4.609057e-11 -4.609057e-11 -1 1550.7124 535.8633)" class="st9" width="33.7" height="17.3"/>
<rect x="758.5" y="276.67" transform="matrix(-1 4.587474e-11 -4.587474e-11 -1 1550.7124 570.6441)" class="st12" width="33.7" height="17.3"/>
<rect x="764.3" y="363.62" transform="matrix(-1 1.342436e-10 -1.342436e-10 -1 1540.2579 744.5484)" class="st15" width="11.65" height="17.3"/>
<rect x="760.55" y="328.84" transform="matrix(-1 1.008410e-10 -1.008410e-10 -1 1536.5062 674.9868)" class="st15" width="15.4" height="17.3"/>
<rect x="762.41" y="346.23" transform="matrix(-1 1.154724e-10 -1.154724e-10 -1 1538.3636 709.7676)" class="st13" width="13.55" height="17.3"/>
<rect x="776.67" y="363.63" transform="matrix(-1 7.863411e-10 -7.863411e-10 -1 1555.3124 744.5497)" class="st15" width="1.98" height="17.3"/>
<rect x="776.67" y="381.02" transform="matrix(-1 7.863411e-10 -7.863411e-10 -1 1555.3124 779.3306)" class="st15" width="1.98" height="17.3"/>
<rect x="776.67" y="328.84" transform="matrix(-1 3.906661e-10 -3.906661e-10 -1 1557.3134 674.9873)" class="st15" width="3.98" height="17.3"/>
<rect x="776.67" y="346.23" transform="matrix(-1 3.906661e-10 -3.906661e-10 -1 1557.3134 709.7681)" class="st15" width="3.98" height="17.3"/>
<rect x="816.48" y="398.08" transform="matrix(-1 4.314676e-10 -4.314676e-10 -1 1636.5648 813.4522)" class="st15" width="3.6" height="17.3"/>
<rect x="817.16" y="415.47" transform="matrix(-1 7.863411e-10 -7.863411e-10 -1 1636.3015 848.233)" class="st15" width="1.98" height="17.3"/>
<rect x="780.59" y="328.84" transform="matrix(-1 3.906661e-10 -3.906661e-10 -1 1565.1653 674.9873)" class="st15" width="3.98" height="17.3"/>
<rect x="780.59" y="346.23" transform="matrix(-1 3.906661e-10 -3.906661e-10 -1 1565.1653 709.7681)" class="st15" width="3.98" height="17.3"/>
<rect x="695.35" y="311.78" transform="matrix(-1 3.906661e-10 -3.906661e-10 -1 1394.6689 640.8657)" class="st15" width="3.98" height="17.3"/>
<rect x="675.9" y="259.61" transform="matrix(-1 3.897512e-10 -3.897512e-10 -1 1355.7728 536.5233)" class="st9" width="3.98" height="17.3"/>
<rect x="679.82" y="259.61" transform="matrix(-1 3.897512e-10 -3.897512e-10 -1 1363.6248 536.5233)" class="st9" width="3.98" height="17.3"/>
<rect x="684.2" y="277" transform="matrix(-1 3.906661e-10 -3.906661e-10 -1 1372.3784 571.3041)" class="st15" width="3.98" height="17.3"/>
<rect x="792.22" y="294.39" transform="matrix(-1 5.219057e-11 -5.219057e-11 -1 1614.203 606.0848)" class="st15" width="29.76" height="17.3"/>
<rect x="792.22" y="311.1" transform="matrix(-1 5.219057e-11 -5.219057e-11 -1 1614.203 639.5041)" class="st9" width="29.76" height="17.3"/>
<rect x="792.22" y="258.93" transform="matrix(-1 5.219057e-11 -5.219057e-11 -1 1614.203 535.1617)" class="st9" width="29.76" height="17.3"/>
<rect x="792.22" y="277" transform="matrix(-1 5.219057e-11 -5.219057e-11 -1 1614.203 571.304)" class="st13" width="29.76" height="17.3"/>
<rect x="821.91" y="294.06" transform="matrix(-1 4.035398e-10 -4.035398e-10 -1 1647.6757 605.427)" class="st15" width="3.86" height="17.3"/>
<rect x="821.91" y="311.45" transform="matrix(-1 4.054254e-10 -4.054254e-10 -1 1647.6757 640.2078)" class="st15" width="3.86" height="17.3"/>
<rect x="821.91" y="259.28" transform="matrix(-1 4.025970e-10 -4.025970e-10 -1 1647.6757 535.8654)" class="st9" width="3.86" height="17.3"/>
<rect x="821.91" y="276.67" transform="matrix(-1 4.025970e-10 -4.025970e-10 -1 1647.6757 570.6462)" class="st15" width="3.86" height="17.3"/>
<rect x="825.72" y="259.28" transform="matrix(-1 4.025970e-10 -4.025970e-10 -1 1655.295 535.8654)" class="st9" width="3.86" height="17.3"/>
<rect x="825.72" y="276.67" transform="matrix(-1 4.025970e-10 -4.025970e-10 -1 1655.295 570.6462)" class="st15" width="3.86" height="17.3"/>
<rect x="814.92" y="363.6" transform="matrix(-1 2.197747e-10 -2.197747e-10 -1 1636.9155 744.5052)" class="st12" width="7.07" height="17.3"/>
<rect x="814.92" y="380.99" transform="matrix(-1 2.197747e-10 -2.197747e-10 -1 1636.9155 779.286)" class="st15" width="7.07" height="17.3"/>
<rect x="814.92" y="328.82" transform="matrix(-1 2.192600e-10 -2.192600e-10 -1 1636.9155 674.9436)" class="st15" width="7.07" height="17.3"/>
<rect x="814.92" y="346.21" transform="matrix(-1 2.213188e-10 -2.213188e-10 -1 1636.9155 709.7244)" class="st15" width="7.07" height="17.3"/>
<rect x="827.71" y="364.28" transform="matrix(-1 1.703282e-09 -1.703282e-09 -1 1656.3302 745.869)" class="st15" width="0.92" height="17.3"/>
<rect x="827.71" y="381.68" transform="matrix(-1 1.695341e-09 -1.695341e-09 -1 1656.3302 780.6498)" class="st15" width="0.92" height="17.3"/>
<rect x="827.71" y="329.5" transform="matrix(-1 1.695341e-09 -1.695341e-09 -1 1656.3302 676.3074)" class="st15" width="0.92" height="17.3"/>
<rect x="827.71" y="346.89" transform="matrix(-1 1.691370e-09 -1.691370e-09 -1 1656.3302 711.0882)" class="st15" width="0.92" height="17.3"/>
<rect x="828.61" y="364.28" transform="matrix(-1 1.703282e-09 -1.703282e-09 -1 1658.1395 745.869)" class="st15" width="0.92" height="17.3"/>
<rect x="828.61" y="381.68" transform="matrix(-1 1.695341e-09 -1.695341e-09 -1 1658.1395 780.6498)" class="st15" width="0.92" height="17.3"/>
<rect x="828.61" y="329.5" transform="matrix(-1 1.695341e-09 -1.695341e-09 -1 1658.1395 676.3074)" class="st15" width="0.92" height="17.3"/>
<rect x="828.61" y="346.89" transform="matrix(-1 1.691370e-09 -1.691370e-09 -1 1658.1395 711.0882)" class="st15" width="0.92" height="17.3"/>
<rect x="731.65" y="416.1" transform="matrix(-1 8.462172e-10 -8.462172e-10 -1 1465.1442 849.4913)" class="st15" width="1.84" height="17.3"/>
<rect x="731.65" y="433.49" transform="matrix(-1 8.422719e-10 -8.422719e-10 -1 1465.1442 884.2721)" class="st15" width="1.84" height="17.3"/>
<rect x="731.65" y="381.32" transform="matrix(-1 8.422719e-10 -8.422719e-10 -1 1465.1442 779.9297)" class="st15" width="1.84" height="17.3"/>
<rect x="731.65" y="398.71" transform="matrix(-1 8.422719e-10 -8.422719e-10 -1 1465.1442 814.7105)" class="st15" width="1.84" height="17.3"/>
<rect x="733.47" y="416.1" transform="matrix(-1 8.462172e-10 -8.462172e-10 -1 1468.7861 849.4913)" class="st15" width="1.84" height="17.3"/>
<rect x="733.47" y="433.49" transform="matrix(-1 8.422719e-10 -8.422719e-10 -1 1468.7861 884.2721)" class="st15" width="1.84" height="17.3"/>
<rect x="733.47" y="381.32" transform="matrix(-1 8.422719e-10 -8.422719e-10 -1 1468.7861 779.9297)" class="st15" width="1.84" height="17.3"/>
<rect x="733.47" y="398.71" transform="matrix(-1 8.422719e-10 -8.422719e-10 -1 1468.7861 814.7105)" class="st15" width="1.84" height="17.3"/>
<rect x="704.62" y="329.83" transform="matrix(-1 1.695344e-09 -1.695344e-09 -1 1410.1548 676.9647)" class="st15" width="0.92" height="17.3"/>
<rect x="704.62" y="347.22" transform="matrix(-1 1.695344e-09 -1.695344e-09 -1 1410.1548 711.7455)" class="st15" width="0.92" height="17.3"/>
<rect x="705.52" y="329.83" transform="matrix(-1 1.695344e-09 -1.695344e-09 -1 1411.9642 676.9647)" class="st15" width="0.92" height="17.3"/>
<rect x="705.52" y="347.22" transform="matrix(-1 1.695344e-09 -1.695344e-09 -1 1411.9642 711.7455)" class="st15" width="0.92" height="17.3"/>
<rect x="706.64" y="364.61" transform="matrix(-1 1.695344e-09 -1.695344e-09 -1 1414.1958 746.5256)" class="st15" width="0.92" height="17.3"/>
<rect x="706.64" y="382" transform="matrix(-1 1.695344e-09 -1.695344e-09 -1 1414.1958 781.3064)" class="st15" width="0.92" height="17.3"/>
<rect x="706.64" y="329.83" transform="matrix(-1 1.695344e-09 -1.695344e-09 -1 1414.1958 676.964)" class="st15" width="0.92" height="17.3"/>
<rect x="706.64" y="347.22" transform="matrix(-1 1.695344e-09 -1.695344e-09 -1 1414.1958 711.7448)" class="st15" width="0.92" height="17.3"/>
<rect x="707.54" y="364.61" transform="matrix(-1 1.695344e-09 -1.695344e-09 -1 1416.0051 746.5256)" class="st15" width="0.92" height="17.3"/>
<rect x="707.54" y="382" transform="matrix(-1 1.695344e-09 -1.695344e-09 -1 1416.0051 781.3064)" class="st15" width="0.92" height="17.3"/>
<rect x="707.54" y="329.83" transform="matrix(-1 1.695344e-09 -1.695344e-09 -1 1416.0051 676.964)" class="st15" width="0.92" height="17.3"/>
<rect x="707.54" y="347.22" transform="matrix(-1 1.695344e-09 -1.695344e-09 -1 1416.0051 711.7448)" class="st15" width="0.92" height="17.3"/>
<rect x="729.95" y="346.53" transform="matrix(-1 2.208041e-10 -2.208041e-10 -1 1466.9652 710.3682)" class="st15" width="7.07" height="17.3"/>
<rect x="729.95" y="363.92" transform="matrix(-1 2.197747e-10 -2.197747e-10 -1 1466.9652 745.1489)" class="st15" width="7.07" height="17.3"/>
<rect x="695.36" y="329.17" transform="matrix(-1 4.270090e-10 -4.270090e-10 -1 1394.3582 675.6459)" class="st15" width="3.64" height="17.3"/>
<rect x="729.95" y="329.14" transform="matrix(-1 2.197747e-10 -2.197747e-10 -1 1466.9652 675.5873)" class="st15" width="7.07" height="17.3"/>
<rect x="711.64" y="364.64" transform="matrix(-1 8.442446e-10 -8.442446e-10 -1 1425.1339 746.5704)" class="st15" width="1.84" height="17.3"/>
<rect x="711.64" y="382.03" transform="matrix(-1 8.442446e-10 -8.442446e-10 -1 1425.1339 781.3511)" class="st15" width="1.84" height="17.3"/>
<rect x="711.64" y="329.85" transform="matrix(-1 8.462172e-10 -8.462172e-10 -1 1425.1339 677.0088)" class="st15" width="1.84" height="17.3"/>
<rect x="711.64" y="347.25" transform="matrix(-1 8.422719e-10 -8.422719e-10 -1 1425.1339 711.7896)" class="st15" width="1.84" height="17.3"/>
<rect x="713.47" y="364.64" transform="matrix(-1 8.442446e-10 -8.442446e-10 -1 1428.7759 746.5704)" class="st15" width="1.84" height="17.3"/>
<rect x="713.47" y="382.03" transform="matrix(-1 8.442446e-10 -8.442446e-10 -1 1428.7759 781.3511)" class="st15" width="1.84" height="17.3"/>
<rect x="713.47" y="329.85" transform="matrix(-1 8.462172e-10 -8.462172e-10 -1 1428.7759 677.0088)" class="st15" width="1.84" height="17.3"/>
<rect x="713.47" y="347.25" transform="matrix(-1 8.422719e-10 -8.422719e-10 -1 1428.7759 711.7896)" class="st15" width="1.84" height="17.3"/>
<rect x="685.68" y="294.39" transform="matrix(-1 8.422719e-10 -8.422719e-10 -1 1373.1987 606.0848)" class="st15" width="1.84" height="17.3"/>
<rect x="691.85" y="311.78" transform="matrix(-1 8.422719e-10 -8.422719e-10 -1 1385.5381 640.8657)" class="st15" width="1.84" height="17.3"/>
<rect x="671.72" y="259.61" transform="matrix(-1 8.402993e-10 -8.402993e-10 -1 1345.2804 536.5233)" class="st9" width="1.84" height="17.3"/>
<rect x="687.5" y="294.39" transform="matrix(-1 8.422719e-10 -8.422719e-10 -1 1376.8407 606.0848)" class="st15" width="1.84" height="17.3"/>
<rect x="693.67" y="311.78" transform="matrix(-1 8.422719e-10 -8.422719e-10 -1 1389.1801 640.8657)" class="st15" width="1.84" height="17.3"/>
<rect x="673.54" y="259.61" transform="matrix(-1 8.402993e-10 -8.402993e-10 -1 1348.9224 536.5233)" class="st9" width="1.84" height="17.3"/>
<rect x="322.8" y="328.79" transform="matrix(-1 4.417233e-12 -4.417233e-12 -1 997.265 674.8716)" class="st12" width="351.66" height="17.3"/>
<rect x="323.87" y="346.18" transform="matrix(-1 4.509604e-12 -4.509604e-12 -1 993.8028 709.6525)" class="st9" width="346.07" height="17.3"/>
<rect x="318.6" y="294.01" transform="matrix(-1 4.306655e-12 -4.306655e-12 -1 1000.4104 605.3101)" class="st11" width="363.21" height="17.3"/>
<rect x="319.19" y="311.4" transform="matrix(-1 4.330636e-12 -4.330636e-12 -1 997.0743 640.0909)" class="st13" width="358.7" height="17.3"/>
<polyline class="st19" points="871.3,134.38 180.86,134.38 180.86,600.53 "/>
<g>
	<polygon class="st20" points="180.86,605.99 174.33,599.47 180.86,599.47 	"/>
	<polygon class="st20" points="180.86,605.99 187.38,599.47 180.86,599.47 	"/>
</g>
<g>
	<polygon class="st20" points="877.82,134.38 871.3,140.9 871.3,134.38 	"/>
	<polygon class="st20" points="877.82,134.38 871.3,127.85 871.3,134.38 	"/>
</g>
<text transform="matrix(1 0 0 1 42.623 363.3311)" class="st28 st29">Stack</text>
<text transform="matrix(1 0 0 1 442.1542 105.5547)" class="st28 st29">Alphabet</text>
</svg>
