<?xml version="1.0" encoding="utf-8"?>
<!-- Generator: Adobe Illustrator 27.3.1, SVG Export Plug-In . SVG Version: 6.00 Build 0)  -->
<svg version="1.1" id="katman_1" xmlns="http://www.w3.org/2000/svg" xmlns:xlink="http://www.w3.org/1999/xlink" x="0px" y="0px"
	 viewBox="0 0 618.2 349.8" style="enable-background:new 0 0 618.2 349.8;" xml:space="preserve">
<style type="text/css">
	.st0{fill:#AAD6C5;stroke:#FFFFFF;stroke-miterlimit:10;}
	.st1{fill:#4057A2;stroke:#FFFFFF;stroke-miterlimit:10;}
	.st2{fill:#4B90CD;stroke:#FFFFFF;stroke-miterlimit:10;}
	.st3{fill:#C6E0E5;stroke:#FFFFFF;stroke-miterlimit:10;}
	.st4{fill:#76C8D9;stroke:#FFFFFF;stroke-miterlimit:10;}
	.st5{fill:none;}
	.st6{fill:#6BC1BD;stroke:#FFFFFF;stroke-miterlimit:10;}
	.st7{fill:#80C0BE;stroke:#FFFFFF;stroke-miterlimit:10;}
	.st8{fill:#7DB3DF;stroke:#FFFFFF;stroke-width:1;stroke-miterlimit:10;}
	.st9{fill:#C8D0D0;stroke:#FFFFFF;stroke-miterlimit:10;}
	.st10{fill:#CCDFE5;stroke:#FFFFFF;stroke-miterlimit:10;}
	.st11{fill:#7DB3DF;stroke:#FFFFFF;stroke-miterlimit:10;}
	.st12{fill:#89C6D7;stroke:#FFFFFF;stroke-miterlimit:10;}
	.st13{fill:#45569E;stroke:#FFFFFF;stroke-miterlimit:10;}
	.st14{fill:#5C8FC9;stroke:#FFFFFF;stroke-miterlimit:10;}
	.st15{fill:#B4D6C7;stroke:#FFFFFF;stroke-miterlimit:10;}
	.st16{fill:#F1EA7A;stroke:#FFFFFF;stroke-miterlimit:10;}
	.st17{fill:none;stroke:#010202;stroke-miterlimit:10;}
	.st18{fill:#010202;}
	.st19{fill:#CC4128;}
	.st20{fill:#DD3014;stroke:#FFFFFF;stroke-miterlimit:10;}
	.st21{fill:#EA6038;stroke:#FFFFFF;stroke-miterlimit:10;}
	.st22{fill:#F9B30E;stroke:#FFFFFF;stroke-miterlimit:10;}
	.st23{fill:#223A81;stroke:#FFFFFF;stroke-miterlimit:10;}
	.st24{fill:#DB6944;stroke:#FFFFFF;stroke-miterlimit:10;}
	.st25{fill:#8A261D;stroke:#FFFFFF;stroke-miterlimit:10;}
	.st26{fill:#CC4128;stroke:#FFFFFF;stroke-miterlimit:10;}
	.st27{fill:#EFB742;stroke:#FFFFFF;stroke-miterlimit:10;}
	.st28{fill:#F3F0B5;stroke:#FFFFFF;stroke-miterlimit:10;}
	.st29{fill:none;stroke:#000000;stroke-miterlimit:10;}
	.st30{fill:#FFFFFF;stroke:#000000;stroke-miterlimit:10;}
	.st31{fill:#45ACAB;}
	.st32{fill:#F1E966;stroke:#FFFFFF;stroke-miterlimit:10;}
	.st33{fill:#951914;stroke:#FFFFFF;stroke-miterlimit:10;}
	.st34{fill:#E74526;stroke:#FFFFFF;stroke-miterlimit:10;}
	.st35{fill:#F18C56;stroke:#FFFFFF;stroke-miterlimit:10;}
	.st36{fill:#F3EFAD;stroke:#FFFFFF;stroke-miterlimit:10;}
	.st37{fill:#C6D0CF;stroke:#FFFFFF;stroke-miterlimit:10;}
	.st38{fill:#6CB3E3;stroke:#FFFFFF;stroke-miterlimit:10;}
	.st39{fill:#3ABBD4;stroke:#FFFFFF;stroke-miterlimit:10;}
	.st40{fill:#EC6C70;stroke:#FFFFFF;stroke-miterlimit:10;}
	.st41{fill:#1AB2AA;stroke:#FFFFFF;stroke-miterlimit:10;}
	.st42{fill:#EAF5F6;stroke:#FFFFFF;stroke-miterlimit:10;}
	.st43{fill:#DA6944;stroke:#FFFFFF;stroke-miterlimit:10;}
	.st44{fill:#E39161;stroke:#FFFFFF;stroke-miterlimit:10;}
	.st45{fill:#EEB641;stroke:#FFFFFF;stroke-miterlimit:10;}
	.st46{fill:#F0E97B;stroke:#FFFFFF;stroke-miterlimit:10;}
	.st47{fill:#F3EFB4;stroke:#FFFFFF;stroke-miterlimit:10;}
	.st48{fill:#89261D;stroke:#FFFFFF;stroke-miterlimit:10;}
	.st49{fill:#DC7373;stroke:#FFFFFF;stroke-miterlimit:10;}
	.st50{fill:#DB6944;}
	.st51{fill:#EFB742;}
	.st52{fill:#DC7373;}
	.st53{fill:none;stroke:#FFFFFF;stroke-width:0.5;stroke-miterlimit:10;}
	.st54{fill:#8A261D;}
	.st55{fill:#E39161;}
	.st56{fill:none;stroke:#FFFFFF;stroke-miterlimit:10;}
	.st57{fill:#4B90CD;}
	.st58{fill:#6BC1BD;}
	.st59{fill:#4057A2;}
	.st60{fill:#A9FBFF;}
	.st61{font-family:'DINAlternate-Bold';}
	.st62{font-size:23.1955px;}
	.st63{fill:#0B0768;}
	.st64{fill:#AAD6C5;}
</style>
<rect x="53.5" y="157.9" class="st0" width="449.8" height="39.9"/>
<rect x="53.2" y="78.4" class="st1" width="526.5" height="39.9"/>
<rect x="129.4" y="197.7" class="st2" width="356.3" height="39.9"/>
<rect x="130.2" y="238.4" class="st3" width="263.4" height="39.9"/>
<rect x="53.5" y="197.7" class="st4" width="75.8" height="39.9"/>
<rect x="53.5" y="118.3" class="st6" width="449.8" height="39.9"/>
<rect x="503.3" y="157.9" class="st23" width="76" height="39.9"/>
<rect x="503.3" y="118.3" class="st2" width="76" height="39.9"/>
<g>
	<polygon class="st57" points="190.7,257.2 196.4,253.9 194,262.8 	"/>
	<polygon class="st57" points="190.7,257.2 185.1,260.5 194,262.8 	"/>
</g>
<path class="st57" d="M170.9,224.9c0.5-0.4,1-0.7,1.5-1.1L194,261c-0.5,0.4-0.9,0.8-1.4,1.2L170.9,224.9z"/>
<g>
	<path class="st58" d="M185.9,150.3c0.5-0.3,1-0.7,1.5-1l20.8,37.7c-0.5,0.4-1,0.8-1.5,1.1L185.9,150.3z"/>
	<g>
		<polygon class="st58" points="205.4,183 211.1,179.9 208.5,188.7 		"/>
		<polygon class="st58" points="205.4,183 199.7,186.2 208.5,188.7 		"/>
	</g>
</g>
<polyline class="st53" points="192.1,157.7 205.9,182.6 211.1,179.8 208.5,188.7 199.5,185.9 204.1,183.5 190.1,157.9 "/>
<g>
	<path class="st59" d="M538.7,102c0.5-0.3,1-0.7,1.5-1l20.8,37.7c-0.5,0.4-1,0.8-1.5,1.1L538.7,102z"/>
	<g>
		<polygon class="st59" points="558.2,134.7 563.9,131.6 561.4,140.4 		"/>
		<polygon class="st59" points="558.2,134.7 552.5,137.9 561.4,140.4 		"/>
	</g>
</g>
<polyline class="st53" points="549.5,117.9 558.8,134.3 563.9,131.5 561.4,140.4 552.3,137.6 556.9,135.3 547.3,118.1 "/>
<g>
	<path class="st57" d="M544.8,141.9c0.5-0.3,1-0.7,1.5-1l20.8,37.7c-0.5,0.4-1,0.8-1.5,1.1L544.8,141.9z"/>
	<g>
		<polygon class="st57" points="564.3,174.7 570,171.5 567.4,180.4 		"/>
		<polygon class="st57" points="564.3,174.7 558.6,177.8 567.4,180.4 		"/>
	</g>
</g>
<g>
	<path class="st59" d="M487.7,102.1c-0.5-0.3-1-0.7-1.5-1l-20.8,37.7c0.5,0.4,1,0.8,1.5,1.1L487.7,102.1z"/>
	<g>
		<polygon class="st59" points="465.1,140.5 462.5,131.6 468.2,134.8 		"/>
		<polygon class="st59" points="465.1,140.5 473.9,137.9 468.2,134.8 		"/>
	</g>
</g>
<polyline class="st53" points="476.9,117.9 467.7,134.3 462.5,131.6 465.1,140.5 474.1,137.7 469.5,135.3 479.2,118.1 "/>
<g>
	<text transform="matrix(1 0 0 1 70.5405 103.3052)" class="st60 st61 st62">a()</text>
</g>
<text transform="matrix(1 0 0 1 70.3198 144.1686)" class="st63 st61 st62">b()</text>
<text transform="matrix(1 0 0 1 517.9194 185.4509)" class="st60 st61 st62">e()</text>
<text transform="matrix(1 0 0 1 145.9611 221.9617)" class="st60 st61 st62">g()</text>
<text transform="matrix(1 0 0 1 71.8064 223.851)" class="st63 st61 st62">f()</text>
<text transform="matrix(1 0 0 1 147.0297 263.348)" class="st63 st61 st62">h()</text>
<text transform="matrix(1 0 0 1 70.3198 183.9321)" class="st63 st61 st62">d()</text>
<g>
	<text transform="matrix(1 0 0 1 518.8266 145.6877)" class="st60 st61 st62">c()</text>
</g>
<g>
	<path class="st64" d="M163.4,181.6c0.5-0.3,1-0.7,1.5-1l20.8,37.7c-0.5,0.4-1,0.8-1.5,1.1L163.4,181.6z"/>
	<g>
		<polygon class="st64" points="182.9,214.3 188.7,211.2 186.1,220 		"/>
		<polygon class="st64" points="182.9,214.3 177.2,217.5 186.1,220 		"/>
	</g>
</g>
<polyline class="st53" points="174.2,197.5 183.5,213.9 188.7,211.1 186.1,220 177,217.2 181.7,214.9 172,197.7 "/>
<g>
	<path class="st64" d="M119.3,181.6c-0.5-0.3-1-0.7-1.5-1l-20.8,37.7c0.5,0.4,1,0.8,1.5,1.1L119.3,181.6z"/>
	<g>
		<polygon class="st64" points="96.7,220 94.1,211.2 99.8,214.3 		"/>
		<polygon class="st64" points="96.7,220 105.5,217.5 99.8,214.3 		"/>
	</g>
</g>
<polyline class="st53" points="108.5,197.5 99.3,213.9 94.1,211.1 96.7,220 105.7,217.2 101.1,214.9 110.8,197.7 "/>
</svg>
