<?xml version="1.0" encoding="utf-8"?>
<!-- Generator: Adobe Illustrator 27.3.1, SVG Export Plug-In . SVG Version: 6.00 Build 0)  -->
<svg version="1.1" id="katman_1" xmlns="http://www.w3.org/2000/svg" xmlns:xlink="http://www.w3.org/1999/xlink" x="0px" y="0px"
	 viewBox="0 0 618.2 349.8" style="enable-background:new 0 0 618.2 349.8;" xml:space="preserve">
<style type="text/css">
	.st0{fill:#AAD6C5;stroke:#FFFFFF;stroke-miterlimit:10;}
	.st1{fill:#4057A2;stroke:#FFFFFF;stroke-miterlimit:10;}
	.st2{fill:#4B90CD;stroke:#FFFFFF;stroke-miterlimit:10;}
	.st3{fill:#C6E0E5;stroke:#FFFFFF;stroke-miterlimit:10;}
	.st4{fill:#76C8D9;stroke:#FFFFFF;stroke-miterlimit:10;}
	.st5{fill:none;}
	.st6{fill:#6BC1BD;stroke:#FFFFFF;stroke-miterlimit:10;}
	.st7{fill:#80C0BE;stroke:#FFFFFF;stroke-miterlimit:10;}
	.st8{fill:#7DB3DF;stroke:#FFFFFF;stroke-width:1;stroke-miterlimit:10;}
	.st9{fill:#C8D0D0;stroke:#FFFFFF;stroke-miterlimit:10;}
	.st10{fill:#CCDFE5;stroke:#FFFFFF;stroke-miterlimit:10;}
	.st11{fill:#7DB3DF;stroke:#FFFFFF;stroke-miterlimit:10;}
	.st12{fill:#89C6D7;stroke:#FFFFFF;stroke-miterlimit:10;}
	.st13{fill:#45569E;stroke:#FFFFFF;stroke-miterlimit:10;}
	.st14{fill:#5C8FC9;stroke:#FFFFFF;stroke-miterlimit:10;}
	.st15{fill:#B4D6C7;stroke:#FFFFFF;stroke-miterlimit:10;}
	.st16{fill:#F1EA7A;stroke:#FFFFFF;stroke-miterlimit:10;}
	.st17{fill:none;stroke:#010202;stroke-miterlimit:10;}
	.st18{fill:#010202;}
	.st19{fill:#CC4128;}
	.st20{fill:#DD3014;stroke:#FFFFFF;stroke-miterlimit:10;}
	.st21{fill:#EA6038;stroke:#FFFFFF;stroke-miterlimit:10;}
	.st22{fill:#F9B30E;stroke:#FFFFFF;stroke-miterlimit:10;}
	.st23{fill:#223A81;stroke:#FFFFFF;stroke-miterlimit:10;}
	.st24{fill:#DB6944;stroke:#FFFFFF;stroke-miterlimit:10;}
	.st25{fill:#8A261D;stroke:#FFFFFF;stroke-miterlimit:10;}
	.st26{fill:#CC4128;stroke:#FFFFFF;stroke-miterlimit:10;}
	.st27{fill:#EFB742;stroke:#FFFFFF;stroke-miterlimit:10;}
	.st28{fill:#F3F0B5;stroke:#FFFFFF;stroke-miterlimit:10;}
	.st29{fill:none;stroke:#000000;stroke-miterlimit:10;}
	.st30{fill:#FFFFFF;stroke:#000000;stroke-miterlimit:10;}
	.st31{fill:#45ACAB;}
	.st32{fill:#F1E966;stroke:#FFFFFF;stroke-miterlimit:10;}
	.st33{fill:#951914;stroke:#FFFFFF;stroke-miterlimit:10;}
	.st34{fill:#E74526;stroke:#FFFFFF;stroke-miterlimit:10;}
	.st35{fill:#F18C56;stroke:#FFFFFF;stroke-miterlimit:10;}
	.st36{fill:#F3EFAD;stroke:#FFFFFF;stroke-miterlimit:10;}
	.st37{fill:#C6D0CF;stroke:#FFFFFF;stroke-miterlimit:10;}
	.st38{fill:#6CB3E3;stroke:#FFFFFF;stroke-miterlimit:10;}
	.st39{fill:#3ABBD4;stroke:#FFFFFF;stroke-miterlimit:10;}
	.st40{fill:#EC6C70;stroke:#FFFFFF;stroke-miterlimit:10;}
	.st41{fill:#1AB2AA;stroke:#FFFFFF;stroke-miterlimit:10;}
	.st42{fill:#EAF5F6;stroke:#FFFFFF;stroke-miterlimit:10;}
	.st43{fill:#DA6944;stroke:#FFFFFF;stroke-miterlimit:10;}
	.st44{fill:#E39161;stroke:#FFFFFF;stroke-miterlimit:10;}
	.st45{fill:#EEB641;stroke:#FFFFFF;stroke-miterlimit:10;}
	.st46{fill:#F0E97B;stroke:#FFFFFF;stroke-miterlimit:10;}
	.st47{fill:#F3EFB4;stroke:#FFFFFF;stroke-miterlimit:10;}
	.st48{fill:#89261D;stroke:#FFFFFF;stroke-miterlimit:10;}
	.st49{fill:#DC7373;stroke:#FFFFFF;stroke-miterlimit:10;}
	.st50{fill:#F3F0B5;}
	.st51{font-family:'DINAlternate-Bold';}
	.st52{font-size:23.1955px;}
	.st53{fill:#8A261D;}
	.st54{fill:#DB6944;}
	.st55{fill:#EFB742;}
	.st56{fill:#DC7373;}
	.st57{fill:none;stroke:#FFFFFF;stroke-width:0.5;stroke-miterlimit:10;}
	.st58{fill:#E39161;}
	.st59{fill:none;stroke:#FFFFFF;stroke-miterlimit:10;}
	.st60{fill:#4B90CD;}
	.st61{fill:#6BC1BD;}
	.st62{fill:#4057A2;}
	.st63{fill:#AAD6C5;}
</style>
<rect x="55.5" y="155.5" class="st24" width="449.8" height="39.9"/>
<rect x="55.1" y="235" class="st25" width="526.5" height="39.9"/>
<rect x="505.2" y="155.5" class="st26" width="76" height="39.9"/>
<rect x="131.3" y="115.6" class="st27" width="356.3" height="39.9"/>
<rect x="132.1" y="75" class="st28" width="263.4" height="39.9"/>
<rect x="55.5" y="115.6" class="st16" width="75.8" height="39.9"/>
<text transform="matrix(1 0 0 1 66.2917 263.3888)" class="st50 st51 st52">a()</text>
<text transform="matrix(1 0 0 1 66.0013 183.6845)" class="st50 st51 st52">c()</text>
<text transform="matrix(1 0 0 1 525.1895 183.6847)" class="st50 st51 st52">h()</text>
<rect x="55.5" y="195.1" class="st49" width="449.8" height="39.9"/>
<rect x="505.2" y="195.1" class="st44" width="76" height="39.9"/>
<text transform="matrix(1 0 0 1 66.0013 223.2785)" class="st50 st51 st52">b()</text>
<text transform="matrix(1 0 0 1 524.3425 223.5233)" class="st50 st51 st52">g()</text>
<text transform="matrix(1 0 0 1 149.1995 101.6918)" class="st53 st51 st52">f()</text>
<text transform="matrix(1 0 0 1 146.3333 142.2191)" class="st53 st51 st52">e()</text>
<text transform="matrix(1 0 0 1 66.0013 142.2191)" class="st53 st51 st52">d()</text>
<g>
	<polygon class="st54" points="103.1,136.8 111.9,139.6 106.1,142.6 	"/>
	<polygon class="st54" points="103.1,136.8 100.3,145.6 106.1,142.6 	"/>
</g>
<path class="st54" d="M122.6,176.7c0.6-0.2,1.1-0.4,1.7-0.7l-19.6-38.3c-0.6,0.2-1.2,0.4-1.8,0.6L122.6,176.7z"/>
<g>
	<polygon class="st54" points="193.5,134 195.9,142.9 190.3,139.6 	"/>
	<polygon class="st54" points="193.5,134 184.6,136.3 190.3,139.6 	"/>
</g>
<path class="st54" d="M170.5,171.9c0.5,0.4,1,0.7,1.5,1.1l21.6-37.2c-0.5-0.4-0.9-0.8-1.4-1.2L170.5,171.9z"/>
<g>
	<polygon class="st55" points="195.9,90.4 198.3,99.3 192.6,96.1 	"/>
	<polygon class="st55" points="195.9,90.4 187,92.8 192.6,96.1 	"/>
</g>
<path class="st55" d="M172.9,128.4c0.5,0.4,1,0.7,1.5,1.1l21.6-37.2c-0.5-0.4-0.9-0.8-1.4-1.2L172.9,128.4z"/>
<g>
	<path class="st56" d="M183.5,211.5c0.5,0.3,1,0.7,1.5,1l20.8-37.7c-0.5-0.4-1-0.8-1.5-1.1L183.5,211.5z"/>
	<g>
		<polygon class="st56" points="206.2,173 208.7,181.9 203,178.7 		"/>
		<polygon class="st56" points="206.2,173 197.3,175.6 203,178.7 		"/>
	</g>
</g>
<polyline class="st57" points="194.3,195.6 203.6,179.2 208.7,181.9 206.1,173 197.1,175.9 201.7,178.2 192.1,195.4 "/>
<g>
	<path class="st53" d="M540.6,251.3c0.5,0.3,1,0.7,1.5,1l20.8-37.7c-0.5-0.4-1-0.8-1.5-1.1L540.6,251.3z"/>
	<g>
		<polygon class="st53" points="563.3,212.8 565.9,221.7 560.1,218.5 		"/>
		<polygon class="st53" points="563.3,212.8 554.4,215.4 560.1,218.5 		"/>
	</g>
</g>
<polyline class="st57" points="551.4,235.4 560.7,219 565.9,221.8 563.3,212.8 554.2,215.7 558.9,218 549.2,235.2 "/>
<g>
	<path class="st58" d="M546.7,211.3c0.5,0.3,1,0.7,1.5,1l20.8-37.7c-0.5-0.4-1-0.8-1.5-1.1L546.7,211.3z"/>
	<g>
		<polygon class="st58" points="569.3,172.9 571.9,181.7 566.2,178.6 		"/>
		<polygon class="st58" points="569.3,172.9 560.5,175.4 566.2,178.6 		"/>
	</g>
</g>
<polyline class="st59" points="557.5,195.4 566.7,179 571.9,181.8 569.3,172.9 560.3,175.7 564.9,178.1 555.2,195.2 "/>
<g>
	<path class="st53" d="M489.7,251.2c-0.5,0.3-1,0.7-1.5,1l-20.8-37.7c0.5-0.4,1-0.8,1.5-1.1L489.7,251.2z"/>
	<g>
		<polygon class="st53" points="470.1,218.5 464.4,221.6 467,212.8 		"/>
		<polygon class="st53" points="470.1,218.5 475.9,215.3 467,212.8 		"/>
	</g>
</g>
<polyline class="st57" points="478.8,235.3 469.6,218.9 464.4,221.7 467,212.8 476,215.6 471.4,217.9 481.1,235.1 "/>
</svg>
