<?xml version="1.0" encoding="utf-8"?>
<!-- Generator: Adobe Illustrator 27.3.1, SVG Export Plug-In . SVG Version: 6.00 Build 0)  -->
<svg version="1.1" id="katman_1" xmlns="http://www.w3.org/2000/svg" xmlns:xlink="http://www.w3.org/1999/xlink" x="0px" y="0px"
	 viewBox="0 0 618.2 349.8" style="enable-background:new 0 0 618.2 349.8;" xml:space="preserve">
<style type="text/css">
	.st0{fill:#80C0BE;stroke:#FFFFFF;stroke-miterlimit:10;}
	.st1{fill:#7DB3DF;stroke:#FFFFFF;stroke-width:1;stroke-miterlimit:10;}
	.st2{fill:#C8D0D0;stroke:#FFFFFF;stroke-miterlimit:10;}
	.st3{fill:#CCDFE5;stroke:#FFFFFF;stroke-miterlimit:10;}
	.st4{fill:#7DB3DF;stroke:#FFFFFF;stroke-miterlimit:10;}
	.st5{fill:#89C6D7;stroke:#FFFFFF;stroke-miterlimit:10;}
	.st6{fill:#45569E;stroke:#FFFFFF;stroke-miterlimit:10;}
	.st7{fill:#5C8FC9;stroke:#FFFFFF;stroke-miterlimit:10;}
	.st8{fill:#B4D6C7;stroke:#FFFFFF;stroke-miterlimit:10;}
	.st9{fill:#F1EA7A;stroke:#FFFFFF;stroke-miterlimit:10;}
	.st10{fill:none;stroke:#010202;stroke-miterlimit:10;}
	.st11{fill:#010202;}
	.st12{fill:#CC4128;}
	.st13{fill:#4057A2;stroke:#FFFFFF;stroke-miterlimit:10;}
	.st14{fill:#4B90CD;stroke:#FFFFFF;stroke-miterlimit:10;}
	.st15{fill:#76C8D9;stroke:#FFFFFF;stroke-miterlimit:10;}
	.st16{fill:#DD3014;stroke:#FFFFFF;stroke-miterlimit:10;}
	.st17{fill:#EA6038;stroke:#FFFFFF;stroke-miterlimit:10;}
	.st18{fill:#F9B30E;stroke:#FFFFFF;stroke-miterlimit:10;}
	.st19{fill:#AAD6C5;stroke:#FFFFFF;stroke-miterlimit:10;}
	.st20{fill:#223A81;stroke:#FFFFFF;stroke-miterlimit:10;}
	.st21{fill:#C6E0E5;stroke:#FFFFFF;stroke-miterlimit:10;}
	.st22{fill:none;}
	.st23{fill:#DB6944;stroke:#FFFFFF;stroke-miterlimit:10;}
	.st24{fill:#8A261D;stroke:#FFFFFF;stroke-miterlimit:10;}
	.st25{fill:#CC4128;stroke:#FFFFFF;stroke-miterlimit:10;}
	.st26{fill:#EFB742;stroke:#FFFFFF;stroke-miterlimit:10;}
	.st27{fill:#F3F0B5;stroke:#FFFFFF;stroke-miterlimit:10;}
	.st28{fill:none;stroke:#000000;stroke-miterlimit:10;}
	.st29{fill:#FFFFFF;stroke:#000000;stroke-miterlimit:10;}
	.st30{fill:#45ACAB;}
	.st31{fill:#F1E966;stroke:#FFFFFF;stroke-miterlimit:10;}
	.st32{fill:#951914;stroke:#FFFFFF;stroke-miterlimit:10;}
	.st33{fill:#E74526;stroke:#FFFFFF;stroke-miterlimit:10;}
	.st34{fill:#F18C56;stroke:#FFFFFF;stroke-miterlimit:10;}
	.st35{fill:#F3EFAD;stroke:#FFFFFF;stroke-miterlimit:10;}
	.st36{fill:#C6D0CF;stroke:#FFFFFF;stroke-miterlimit:10;}
	.st37{fill:#6CB3E3;stroke:#FFFFFF;stroke-miterlimit:10;}
	.st38{fill:#3ABBD4;stroke:#FFFFFF;stroke-miterlimit:10;}
	.st39{fill:#6BC1BD;stroke:#FFFFFF;stroke-miterlimit:10;}
	.st40{fill:#EC6C70;stroke:#FFFFFF;stroke-miterlimit:10;}
	.st41{fill:#1AB2AA;stroke:#FFFFFF;stroke-miterlimit:10;}
	.st42{fill:#EAF5F6;stroke:#FFFFFF;stroke-miterlimit:10;}
</style>
<rect x="60" y="133.9" class="st19" width="449.8" height="39.9"/>
<rect x="59.3" y="94" class="st13" width="526.5" height="39.9"/>
<rect x="509.8" y="133.9" class="st20" width="76" height="39.9"/>
<rect x="135.8" y="173.7" class="st14" width="356.3" height="39.9"/>
<rect x="136.7" y="214.4" class="st21" width="263.4" height="39.9"/>
<rect x="60" y="173.7" class="st15" width="75.8" height="39.9"/>
<g>
	<polygon class="st11" points="478.5,194.2 478.5,187.7 485.1,194.2 	"/>
	<polygon class="st11" points="478.5,194.2 478.5,200.8 485.1,194.2 	"/>
</g>
<g>
	<polygon class="st11" points="576.2,152.5 576.2,145.9 582.7,152.5 	"/>
	<polygon class="st11" points="576.2,152.5 576.2,159 582.7,152.5 	"/>
</g>
<g>
	<polygon class="st11" points="512.6,152.5 519.1,145.9 519.1,152.5 	"/>
	<polygon class="st11" points="512.6,152.5 519.1,159 519.1,152.5 	"/>
</g>
<g>
	<polygon class="st11" points="145.8,194.1 145.8,200.6 139.3,194.1 	"/>
	<polygon class="st11" points="145.8,194.1 145.8,187.5 139.3,194.1 	"/>
</g>
<path class="st11" d="M480,195.3H143.6c0-0.7,0-1.4,0-2.2h336C479.8,193.9,479.8,194.6,480,195.3z"/>
<g>
	<polygon class="st11" points="386.4,234.3 386.4,227.8 392.9,234.3 	"/>
	<polygon class="st11" points="386.4,234.3 386.4,240.9 392.9,234.3 	"/>
</g>
<g>
	<polygon class="st11" points="156.6,234.3 156.6,240.9 150.1,234.3 	"/>
	<polygon class="st11" points="156.6,234.3 156.6,227.8 150.1,234.3 	"/>
</g>
<path class="st11" d="M388.3,235.2h-237c0-0.6,0-1.2,0-1.8H388C388.1,234,388.2,234.6,388.3,235.2z"/>
<g>
	<polygon class="st11" points="493.6,152.5 493.6,145.9 500.1,152.5 	"/>
	<polygon class="st11" points="493.6,152.5 493.6,159 500.1,152.5 	"/>
</g>
<g>
	<polygon class="st11" points="76.4,151.8 76.4,158.3 70,151.8 	"/>
	<polygon class="st11" points="76.4,151.8 76.4,145.2 70,151.8 	"/>
</g>
<path class="st11" d="M495,153.4H75.3c0-0.6,0-1.2,0-1.8h419.2C494.8,152.2,494.9,152.8,495,153.4z"/>
<path class="st11" d="M516.5,153.4c-0.1-0.6-0.2-1.2-0.3-1.8H581c0.2,0.6,0.3,1.2,0.4,1.8H516.5z"/>
<g>
	<polygon class="st11" points="123.7,193.7 123.7,187.1 130.2,193.7 	"/>
	<polygon class="st11" points="123.7,193.7 123.7,200.2 130.2,193.7 	"/>
</g>
<g>
	<polygon class="st11" points="69.8,193.2 69.8,199.7 63.3,193.2 	"/>
	<polygon class="st11" points="69.8,193.2 69.8,186.6 63.3,193.2 	"/>
</g>
<path class="st11" d="M125.9,194.1H67c0-0.6,0-1.2-0.2-1.8h59.1C125.8,192.9,125.8,193.5,125.9,194.1z"/>
<g>
	<polygon class="st11" points="573,110.3 573,103.8 579.4,110.3 	"/>
	<polygon class="st11" points="573,110.3 573,116.9 579.4,110.3 	"/>
</g>
<g>
	<polygon class="st11" points="74.7,110.4 74.7,116.9 68.3,110.4 	"/>
	<polygon class="st11" points="74.7,110.4 74.7,103.8 68.3,110.4 	"/>
</g>
<path class="st11" d="M574.3,111.3H73.9c0-0.6,0-1.2,0-1.8h499.8C574,110,574.1,110.7,574.3,111.3z"/>
</svg>
